<ttFont>
          <CharString index="0">
            rmoveto
            23 -18 18 -23 -22 -18 -18 -23 -22 18 -18 22 23 18 18 22 vhcurveto
            100 -40 rmoveto
            23 18 18 23 -93 callsubr
            -57 callsubr
            hvcurveto
            return
          </CharString>
          <CharString index="1">
            483 506 rmoveto
            -68 callsubr
            -73 callgsubr
            vhcurveto
            -93 callgsubr
            -76 -48 -43 -71 -75 -44 44 74 vhcurveto
            -61 callgsubr
            -33 callsubr
            vhcurveto
            return
          </CharString>
          <CharString index="2">
            rmoveto
            -142 141 -148 -141 56 -39 91 90 86 -90 rlineto
            return
          </CharString>
          <CharString index="3">
            hstemhm
            78 283 -192 282 hintmask 01101000
            451 316 rmoveto
            121 -69 75 -116 vhcurveto
            hintmask 10110000
            -87 callgsubr
            hintmask 01110000
            -90 -10 rmoveto
            -63 -39 -33 -56 vhcurveto
            hintmask 10101000
            -55 -42 31 65 hvcurveto
            142 vlineto
            -28 callsubr
            vhcurveto
            hintmask 10110000
            45 50 -17 -89 hvcurveto
            return
          </CharString>
          <CharString index="4">
            rmoveto
            43 38 24 35 -1 46 rrcurveto
            20 -13 32 -31 2 vhcurveto
            return
          </CharString>
          <CharString index="5">
            300 -180 vlineto
            30 -88 rlineto
            60 -26 hlineto
            -76 -53 -29 -58 -70 -49 30 76 vhcurveto
            325 vlineto
            92 65 13 56 33 29 -6 -13 35 vhcurveto
            27 78 -78 40 -106 6 -65 -38 rlinecurve
            -53 -32 -34 -51 -98 vvcurveto
            -314 vlineto
            return
          </CharString>
          <CharString index="6">
            79 45 -27 -57 hvcurveto
            -46 30 -108 29 -71 -35 rrcurveto
            -41 -20 -28 -41 -72 vvcurveto
            -83 vlineto
            return
          </CharString>
          <CharString index="7">
            rmoveto
            -48 111 -12 29 -31 5 -16 -7 rlinecurve
            -23 -10 -10 -28 21 -27 56 -73 rcurveline
            return
          </CharString>
          <CharString index="8">
            rmoveto
            -69 -5 hlineto
            -28 -19 -19 -25 -24 -19 17 30 vhcurveto
            5 -70 -5 vlineto
            -62 51 -51 62 62 51 51 62 vhcurveto
            return
          </CharString>
          <CharString index="9">
            -31 -12 -39 -30 -73 hhcurveto
            -85 -53 40 88 hvcurveto
            270 -91 -273 vlineto
            -136 93 -79 136 49 46 14 20 29 vhcurveto
            -86 vlineto
            return
          </CharString>
          <CharString index="10">
            324 vlineto
            190 376 rlineto
            -98 hlineto
            -139 -276 -138 276 rlineto
            -97 hlineto
            190 -376 rlineto
            -324 vlineto
            return
          </CharString>
          <CharString index="11">
            -114 -76 -66 -119 hvcurveto
            -149 vlineto
            -125 71 -63 115 55 32 19 20 13 vhcurveto
            -79 vlineto
            -53 -26 -28 -45 -6 vhcurveto
            71 350 rmoveto
            return
          </CharString>
          <CharString index="12">
            181 -245 -29 -12 78 vhcurveto
            30 -4 16 31 62 hhcurveto
            57 28 -24 0 hvcurveto
            27 82 rlineto
            0 -41 29 -71 -132 -45 -85 -63 6 vhcurveto
            return
          </CharString>
          <CharString index="13">
            -240 -700 91 212 155 hlineto
            14 5 1 1 4 hvcurveto
            73 -214 rlineto
            -251 300 rmoveto
            309 121 vlineto
            76 51 -28 -111 -61 0 -109 -113 hvcurveto
            return
          </CharString>
          <CharString index="14">
            22 -18 19 -23 -22 -19 -19 -22 return
          </CharString>
          <CharString index="15">
            517 hmoveto
            -195 700 rlineto
            -119 hlineto
            -185 -700 rlineto
            return
          </CharString>
          <CharString index="16">
            -121 -67 -70 -126 hvcurveto
            -132 vlineto
            -102 57 -92 131 return
          </CharString>
          <CharString index="17">
            rmoveto
            -90 -21 -35 -80 -76 -21 34 90 vhcurveto
            297 -91 -329 vlineto
            -125 67 -57 121 125 67 57 125 vhcurveto
            329 -91 vlineto
            endchar
          </CharString>
          <CharString index="18">
            -79 callsubr
            hintmask 11110000
            -101 callsubr
            return
          </CharString>
          <CharString index="19">
            rmoveto
            -79 -26 -30 -41 -46 -16 26 76 -1 vhcurveto
            117 -92 -117 vlineto
            -76 -2 -15 -26 -44 hhcurveto
            -39 -28 25 84 hvcurveto
            138 vlineto
            71 26 31 41 15 vhcurveto
            -51 56 rlineto
            -73 -27 -34 -68 -88 vvcurveto
            -129 vlineto
            -120 43 -80 118 37 41 14 39 27 vhcurveto
            -39 26 41 -14 38 hhcurveto
            118 43 80 120 hvcurveto
            129 vlineto
            88 -34 68 -73 27 vhcurveto
            -50 -56 rlineto
            43 -17 23 -29 -71 vvcurveto
            endchar
          </CharString>
          <CharString index="20">
            rmoveto
            -28 -14 -20 -9 -16 hhcurveto
            -15 -18 5 26 -2 hvcurveto
            return
          </CharString>
          <CharString index="21">
            -53 callgsubr
            hstemhm
            78 283 -192 282 hintmask 01010000
            451 316 rmoveto
            121 -69 75 -116 vhcurveto
            hintmask 10100000
            -91 callsubr
            vhcurveto
            hintmask 10010000
            132 53 92 102 hvcurveto
            hintmask 01100000
            -90 -10 rmoveto
            -63 -39 -33 -56 vhcurveto
            hintmask 10010000
            -55 -42 31 65 hvcurveto
            142 vlineto
            -28 callsubr
            vhcurveto
            hintmask 10100000
            45 50 -17 -89 hvcurveto
            return
          </CharString>
          <CharString index="22">
            17 -169 242 55 -115 vvcurveto
            -40 -38 -26 -48 -57 -35 30 34 -3 vhcurveto
            return
          </CharString>
          <CharString index="23">
            445 hmoveto
            85 -247 vlineto
            233 333 rlineto
            83 -344 -85 223 vlineto
            -232 -331 rlineto
            -85 vlineto
            return
          </CharString>
          <CharString index="24">
            -65 callsubr
            hintmask 11100000
            -101 callsubr
            hintmask 11010000
            -74 callsubr
            hintmask 11100000
            -91 79 rmoveto
            hintmask 11010000
            -82 callgsubr
            hintmask 11100000
            -76 callsubr
            return
          </CharString>
          <CharString index="25">
            85 vstem
            473 35 rmoveto
            -24 14 -6 28 0 vvcurveto
            312 vlineto
            32 7 65 0 vhcurveto
            -80 24 -12 -31 rlineto
            -85 36 -195 36 -197 vvcurveto
            -185 vlineto
            -198 179 6 111 30 vhcurveto
            5 13 -7 1 5 hvcurveto
            -40 89 rmoveto
            -150 -38 -32 57 85 vvcurveto
            157 vlineto
            102 120 -31 62 -27 vhcurveto
            return
          </CharString>
          <CharString index="26">
            rmoveto
            204 169 161 215 211 -164 161 -209 -210 -166 -161 -211 -215 171 -161 205 hvcurveto
            89 vmoveto
            -157 -126 116 171 166 126 117 157 155 126 -125 -158 -170 -126 -117 -155 hvcurveto
            return
          </CharString>
          <CharString index="27">
            -66 -1 -37 25 47 vvcurveto
            37 30 24 63 vhcurveto
            63 hlineto
            27 88 rlineto
            -76 hlineto
            -54 -35 29 38 1 hvcurveto
            79 102 -12 65 -21 vhcurveto
            -2 82 -97 32 -142 -13 -15 -114 rlinecurve
            -8 -55 31 -52 24 -17 -49 -27 -23 -48 5 -70 rrcurveto
            -78 6 62 -65 106 hhcurveto
            92 78 34 0 hvcurveto
            endchar
          </CharString>
          <CharString index="28">
            96 0 115 -208 vhcurveto
            -7 -64 rlineto
            return
          </CharString>
          <CharString index="29">
            -204 rmoveto
            -11 30 37 -9 32 hhcurveto
            55 79 24 78 56 -42 29 -42 -12 -14 -3 -4 -9 hvcurveto
            return
          </CharString>
          <CharString index="30">
            27 rmoveto
            -24 14 -3 28 0 vvcurveto
            441 vlineto
            -92 -13 rlineto
            -317 vlineto
            -91 -44 -15 -37 -54 -56 29 6 -6 vhcurveto
            392 -91 -702 vlineto
            91 -9 rlineto
            hintmask 10111100
            231 vlineto
            14 -6 31 -18 63 -8 52 -4 41 13 17 15 9 -13 12 -7 3 1 rrcurveto
            endchar
          </CharString>
          <CharString index="31">
            110 148 -51 55 -31 vhcurveto
            return
          </CharString>
          <CharString index="32">
            -73 callgsubr
            hvcurveto
            -322 vlineto
            -147 112 -49 99 return
          </CharString>
          <CharString index="33">
            -214 226 30 159 15 vhcurveto
            return
          </CharString>
          <CharString index="34">
            -107 callgsubr
            endchar
          </CharString>
          <CharString index="35">
            22 callgsubr
            70 91 24 65 -29 vhcurveto
            22 87 -53 11 -59 12 -67 -35 rlinecurve
            return
          </CharString>
          <CharString index="36">
            22 callgsubr
            76 -35 46 -50 23 vhcurveto
            -64 30 return
          </CharString>
          <CharString index="37">
            -226 358 70 -196 vvcurveto
            -60 -50 -47 -90 -82 -50 51 60 -6 vhcurveto
            return
          </CharString>
          <CharString index="38">
            rmoveto
            -75 3 63 -67 119 hhcurveto
            127 54 73 77 hvcurveto
            return
          </CharString>
          <CharString index="39">
            129 -74 81 -134 return
          </CharString>
          <CharString index="40">
            24 20 20 24 25 -20 20 -24 -24 -21 -20 -25 -24 21 -20 24 hvcurveto
            return
          </CharString>
          <CharString index="41">
            142 -46 47 hstemhm
            return
          </CharString>
          <CharString index="42">
            24 callgsubr
            -79 callsubr
            return
          </CharString>
          <CharString index="43">
            rmoveto
            -129 131 130 128 -60 60 -187 -187 rlineto
            -1 vlineto
            187 -187 rlineto
            return
          </CharString>
          <CharString index="44">
            -43 -109 rmoveto
            60 49 49 60 60 -49 49 -60 -60 -49 -49 -60 -60 49 -49 60 hvcurveto
            endchar
          </CharString>
          <CharString index="45">
            -90 -31 -46 -69 -67 -28 45 63 vhcurveto
            137 vlineto
            return
          </CharString>
          <CharString index="46">
            -241 243 129 return
          </CharString>
          <CharString index="47">
            vstem
            461 hmoveto
            -111 176 -68 115 -29 48 137 117 rcurveline
            -67 64 -167 -154 rlineto
            334 -48 callsubr
            251 vlineto
            27 25 165 -276 rlineto
            return
          </CharString>
          <CharString index="48">
            -115 -87 callsubr
            return
          </CharString>
          <CharString index="49">
            -184 -274 rlineto
            274 -96 -701 96 268 vlineto
            22 33 202 -301 rlineto
            return
          </CharString>
          <CharString index="50">
            -23 19 -18 22 return
          </CharString>
          <CharString index="51">
            81 -17 80 651 -20 return
          </CharString>
          <CharString index="52">
            91 413 rmoveto
            197 93 vlineto
            64 45 -20 -76 -73 -41 -28 -73 hvcurveto
            -88 -329 rmoveto
            241 112 vlineto
            64 63 -27 -89 -106 -59 -19 -80 hvcurveto
            endchar
          </CharString>
          <CharString index="53">
            -217 203 -3 158 60 vhcurveto
            return
          </CharString>
          <CharString index="54">
            rmoveto
            -80 -30 -31 -64 -63 -32 35 76 vhcurveto
            148 vlineto
            97 66 1 92 -17 vhcurveto
            return
          </CharString>
          <CharString index="55">
            -31 callgsubr
            -43 -38 -24 -35 1 -46 rlinecurve
            -23 callgsubr
            return
          </CharString>
          <CharString index="56">
            80 59 1 98 69 vvcurveto
            124 -59 106 -135 vhcurveto
            return
          </CharString>
          <CharString index="57">
            21 -39 callgsubr
            return
          </CharString>
          <CharString index="58">
            -109 -75 -61 -110 return
          </CharString>
          <CharString index="59">
            -91 -700 91 return
          </CharString>
          <CharString index="60">
            rmoveto
            79 -217 -79 vlineto
            endchar
          </CharString>
          <CharString index="61">
            -29 callgsubr
            hintmask 11011000
            -30 callsubr
            return
          </CharString>
          <CharString index="62">
            501 -91 -318 return
          </CharString>
          <CharString index="63">
            -20 0 82 528 90 return
          </CharString>
          <CharString index="64">
            rmoveto
            -57 39 rlineto
            return
          </CharString>
          <CharString index="65">
            -64 30 -90 -10 -39 -22 rrcurveto
            211 -48 callsubr
            402 vlineto
            51 30 136 24 -136 vvcurveto
            -320 vlineto
            endchar
          </CharString>
          <CharString index="66">
            105 -65 63 -111 return
          </CharString>
          <CharString index="67">
            463 -65 callsubr
            return
          </CharString>
          <CharString index="68">
            -37 rmoveto
            116 1 43 53 115 vvcurveto
            568 -152 -86 vlineto
            62 -2 rlineto
            -471 vlineto
            -91 -60 -13 -37 vhcurveto
            return
          </CharString>
          <CharString index="69">
            hmoveto
            hintmask 11100000
            157 501 rlineto
            -98 hlineto
            -106 -354 -107 354 rlineto
            -99 hlineto
            158 -501 rlineto
            endchar
          </CharString>
          <CharString index="70">
            hmoveto
            83 -270 617 -91 -700 vlineto
            return
          </CharString>
          <CharString index="71">
            -92 -568 hlineto
            -78 32 -58 104 -9 vhcurveto
            return
          </CharString>
          <CharString index="72">
            15 -10 callsubr
            64 return
          </CharString>
          <CharString index="73">
            82 -61 callsubr
            vlineto
            -50 callgsubr
            return
          </CharString>
          <CharString index="74">
            89 30 -50 -84 return
          </CharString>
          <CharString index="75">
            -24 -19 19 24 24 19 19 24 hvcurveto
            return
          </CharString>
          <CharString index="76">
            -177 -21 186 75 391 63 return
          </CharString>
          <CharString index="77">
            37 48 -20 -60 hvcurveto
            return
          </CharString>
          <CharString index="78">
            -210 -26 callgsubr
            return
          </CharString>
          <CharString index="79">
            84 48 22 49 return
          </CharString>
          <CharString index="80">
            89 -45 77 16 125 11 rrcurveto
            700 -90 -210 vlineto
            -40 21 -88 10 -66 -31 rrcurveto
            return
          </CharString>
          <CharString index="81">
            -185 -358 81 -35 151 296 102 -208 27 -53 39 -44 66 1 rlinecurve
            return
          </CharString>
          <CharString index="82">
            -75 -44 44 74 hvcurveto
            289 vlineto
            return
          </CharString>
          <CharString index="83">
            91 vstem
            17 83 rmoveto
            -57 38 65 -38 74 hhcurveto
            118 95 95 118 118 return
          </CharString>
          <CharString index="84">
            168 hmoveto
            155 vlineto
            -28 27 43 -11 31 hhcurveto
            108 78 70 129 return
          </CharString>
          <CharString index="85">
            -8 -24 -7 -24 -8 -24 -16 -49 4 -57 33 -32 25 10 26 11 25 10 return
          </CharString>
          <CharString index="86">
            115 97 45 155 hvcurveto
            274 vlineto
            return
          </CharString>
          <CharString index="87">
            -98 -76 -9 -61 vhcurveto
            -101 528 107 hlineto
            return
          </CharString>
          <CharString index="88">
            268 -176 268 return
          </CharString>
          <CharString index="89">
            hstemhm
            78 91 return
          </CharString>
          <CharString index="90">
            -97 38 hlineto
            72 100 23 50 -38 vhcurveto
            -5 -19 -3 -21 -24 vvcurveto
            -532 return
          </CharString>
          <CharString index="91">
            18 15 15 18 18 -15 15 -18 -18 -15 -15 -18 -18 15 -15 18 hvcurveto
            return
          </CharString>
          <CharString index="92">
            513 hmoveto
            -82 244 rlineto
            return
          </CharString>
          <CharString index="93">
            0 80 554 80 return
          </CharString>
          <CharString index="94">
            rmoveto
            66 -16 29 -10 12 vhcurveto
            40 10 41 32 17 36 -65 48 rcurveline
            return
          </CharString>
          <CharString index="95">
            -207 -103 callsubr
            return
          </CharString>
          <CharString index="96">
            62 35 39 60 65 35 -36 -63 vhcurveto
            return
          </CharString>
          <CharString index="97">
            -12 51 406 return
          </CharString>
          <CharString index="98">
            -221 21 -78 callgsubr
            41 143 -71 104 -18 callsubr
            return
          </CharString>
          <CharString index="99">
            99 110 49 147 hvcurveto
            -91 14 rmoveto
            -76 -48 -43 -71 vhcurveto
            return
          </CharString>
          <CharString index="100">
            -11 50 -39 63 396 50 205 -20 hstemhm
            78 279 return
          </CharString>
          <CharString index="101">
            vlineto
            131 57 78 116 hvcurveto
            return
          </CharString>
          <CharString index="102">
            rmoveto
            -57 39 -86 -91 -91 91 rlineto
            return
          </CharString>
          <CharString index="103">
            -224 61 -40 -21 126 50 return
          </CharString>
          <CharString index="104">
            -28 -92 -28 -93 -28 -92 -26 15 return
          </CharString>
          <CharString index="105">
            rmoveto
            -24 -19 -19 -24 vhcurveto
            return
          </CharString>
          <CharString index="106">
            -207 75 649 -20 return
          </CharString>
          <CharString index="107">
            76 -17 80 588 80 return
          </CharString>
          <CharString index="108">
            143 -17 callgsubr
            return
          </CharString>
          <CharString index="109">
            -9 callgsubr
            78 return
          </CharString>
          <CharString index="110">
            410 hmoveto
            82 return
          </CharString>
          <CharString index="111">
            -21 -19 -22 -8 -30 -90 -108 -372 rcurveline
            97 hlineto
            return
          </CharString>
          <CharString index="112">
            -45 callgsubr
            vlineto
            endchar
          </CharString>
          <CharString index="113">
            hintmask 1111110010000000
            170 88 hlineto
            hintmask 1111100110000000
            -170 return
          </CharString>
          <CharString index="114">
            60 41 6 58 39 vvcurveto
            119 -83 56 -104 vhcurveto
            return
          </CharString>
          <CharString index="115">
            21 -21 293 -21 28 -21 return
          </CharString>
          <CharString index="116">
            -210 71 127 433 -346 435 return
          </CharString>
          <CharString index="117">
            142 -109 -20 83 47 hstemhm
            53 300 return
          </CharString>
          <CharString index="118">
            27 21 29 34 35 21 -29 -27 vhcurveto
            endchar
          </CharString>
          <CharString index="119">
            21 -21 472 55 return
          </CharString>
          <CharString index="120">
            463 24 callgsubr
            return
          </CharString>
          <CharString index="121">
            24 19 -19 -24 hvcurveto
            return
          </CharString>
          <CharString index="122">
            21 -21 634 80 return
          </CharString>
          <CharString index="123">
            147 vhcurveto
            return
          </CharString>
          <CharString index="124">
            78 157 rmoveto
            -72 33 -44 45 -23 vhcurveto
            return
          </CharString>
          <CharString index="125">
            -27 79 -39 29 -81 -1 return
          </CharString>
          <CharString index="126">
            875 -43 callsubr
            return
          </CharString>
          <CharString index="127">
            75 hstemhm
            36 90 -78 97 return
          </CharString>
          <CharString index="128">
            hintmask 100011011011011101100000
            return
          </CharString>
          <CharString index="129">
            249 -325 return
          </CharString>
          <CharString index="130">
            43 0 43 return
          </CharString>
          <CharString index="131">
            hmoveto
            700 return
          </CharString>
          <CharString index="132">
            -166 -198 68 793 68 hstem
            return
          </CharString>
          <CharString index="133">
            -28 -21 -28 -35 -34 -21 28 28 vhcurveto
            return
          </CharString>
          <CharString index="134">
            -213 50 return
          </CharString>
          <CharString index="135">
            70 rlineto
            -76 -24 -40 -67 -98 vvcurveto
            return
          </CharString>
          <CharString index="136">
            25 -21 21 -25 -26 -21 -21 -25 return
          </CharString>
          <CharString index="137">
            10 -16 7 -31 -5 -12 -29 rrcurveto
            return
          </CharString>
          <CharString index="138">
            -24 -20 -20 -25 -24 20 -20 24 return
          </CharString>
          <CharString index="139">
            hstemhm
            37 97 -80 98 return
          </CharString>
        <CharString name=".notdef">
          15 0 650 -600 650 hstemhm
          0 450 -400 450 hintmask 10010000
          500 hmoveto
          hintmask 01010000
          700 vlineto
          hintmask 01100000
          -500 hlineto
          hintmask 10100000
          -700 vlineto
          hintmask 10010000
          hintmask 01100000
          450 50 rmoveto
          hintmask 01010000
          -400 hlineto
          hintmask 10010000
          600 vlineto
          hintmask 10100000
          400 hlineto
          hintmask 01100000
          -25 -517 rmoveto
          -145 217 145 217 -39 32 -136 -204 -137 205 -40 -29 147 -221 -147 -221 40 -29 137 205 136 -204 rlineto
          endchar
        </CharString>
        <CharString name=".null">
          -485 endchar
        </CharString>
        <CharString name="A">
          -48 callgsubr
          hstem
          3 callgsubr
          vstem
          -92 callsubr
          -102 callgsubr
          endchar
        </CharString>
        <CharString name="AE">
          331 0 83 129 295 103 90 hstemhm
          78 366 -106 198 77 79 hintmask 11101100
          777 hmoveto
          83 -241 242 137 vlineto
          29 88 rlineto
          -166 -34 callgsubr
          90 hlineto
          hintmask 11110100
          -335 hlineto
          -366 -700 rlineto
          105 hlineto
          110 212 rlineto
          152 hlineto
          -1 -212 rlineto
          1 300 rmoveto
          hintmask 11101100
          -107 hlineto
          107 207 rlineto
          endchar
        </CharString>
        <CharString name="Aacute">
          -48 callgsubr
          451 -9 callgsubr
          3 callgsubr
          -173 109 hintmask 11101000
          -92 callsubr
          hintmask 11110000
          -102 callgsubr
          35 181 rmoveto
          -73 callsubr
        </CharString>
        <CharString name="Abreve">
          -48 callgsubr
          563 0 36 -20 hstemhm
          3 callgsubr
          -189 156 hintmask 11111000
          -92 callsubr
          -102 callgsubr
          hintmask 11110100
          116 298 -99 callsubr
          endchar
        </CharString>
        <CharString name="Acircumflex">
          -48 callgsubr
          450 142 hstemhm
          3 callgsubr
          -284 251 hintmask 11101000
          -92 callsubr
          hintmask 11110000
          -102 callgsubr
          147 221 -105 callsubr
          endchar
        </CharString>
        <CharString name="Adieresis">
          -48 callgsubr
          511 104 hstemhm
          3 callgsubr
          -287 90 98 90 hintmask 11101100
          -92 callsubr
          hintmask 11110000
          -102 callgsubr
          -30 221 -107 callsubr
          endchar
        </CharString>
        <CharString name="Agrave">
          -48 callgsubr
          451 -9 callgsubr
          3 callgsubr
          -244 119 96 109 hintmask 11101100
          -92 callsubr
          hintmask 11110000
          -102 callgsubr
          20 183 -100 callsubr
          endchar
        </CharString>
        <CharString name="Alpha">
          38 21 -21 215 80 -50 55 328 86 hstemhm
          -7 663 -537 292 hintmask 11011000
          -92 callsubr
          hintmask 11010100
          101 hlineto
          53 205 rlineto
          184 hlineto
          55 -205 rlineto
          hintmask 10111000
          -77 300 rmoveto
          -140 hlineto
          68 250 rlineto
          endchar
        </CharString>
        <CharString name="Alphatonos">
          138 21 -21 245 55 267 143 -141 -9 callgsubr
          140 386 -338 292 hintmask 11011000
          586 hmoveto
          -195 700 rlineto
          -119 hlineto
          -185 -700 rlineto
          hintmask 11010100
          -102 callgsubr
          hintmask 11101000
          -188 17 rmoveto
          -73 callsubr
        </CharString>
        <CharString name="Amacron">
          -48 callgsubr
          450 79 hstemhm
          93 334 -308 292 hintmask 11110000
          -92 callsubr
          hintmask 11101000
          -102 callgsubr
          106 180 -47 callsubr
        </CharString>
        <CharString name="Aogonek">
          163 27 callsubr
          184 -21 300 -20 hstemhm
          179 292 -49 68 hintmask 11101000
          566 -115 -83 callgsubr
          1 hlineto
          -195 700 rlineto
          -119 hlineto
          -185 -700 rlineto
          hintmask 11110000
          101 hlineto
          53 205 rlineto
          184 hlineto
          55 -205 rlineto
          40 hlineto
          -86 -54 -8 -49 -19 -86 callgsubr
          -217 463 rmoveto
          -140 hlineto
          68 250 rlineto
          endchar
        </CharString>
        <CharString name="Aring">
          -48 callgsubr
          447 23 callsubr
          hstemhm
          3 callgsubr
          -191 23 callsubr
          hintmask 11010010
          517 hmoveto
          -190 681 rlineto
          27 20 18 33 36 vvcurveto
          60 -49 49 -60 -60 -49 -49 -60 -36 17 -32 27 -20 vhcurveto
          -180 -682 rlineto
          hintmask 11101000
          -102 callgsubr
          hintmask 11100010
          44 220 -2 callsubr
          hintmask 11010100
          -32 callsubr
          hintmask 11100010
          14 callsubr
          endchar
        </CharString>
        <CharString name="Atilde">
          -48 callgsubr
          454 9 callgsubr
          96 345 -322 292 hintmask 11010100
          -92 callsubr
          -102 callgsubr
          143 287 rmoveto
          hintmask 11101000
          -103 callgsubr
        </CharString>
        <CharString name="B">
          63 84 0 329 0 234 67 -18 callsubr
          0 306 -306 342 hintmask 11100100
          -32 callgsubr
          hintmask 11101000
          7 callsubr
          hintmask 11110000
          -210 -700 hlineto
          -55 callsubr
        </CharString>
        <CharString name="Beta">
          63 0 80 4 0 243 80 6 0 0 234 -13 80 hstemhm
          78 56 -56 91 -91 95 -4 306 -306 342 -94 58 40 95 hintmask 1111011000101000
          -32 callgsubr
          hintmask 1111011001001000
          7 callsubr
          hintmask 1111010010011000
          -210 -700 hlineto
          hintmask 1110100100011000
          -55 callsubr
        </CharString>
        <CharString name="C">
          -19 callgsubr
          hstem
          66 91 vstem
          412 107 rmoveto
          -101 callgsubr
          -54 callsubr
          endchar
        </CharString>
        <CharString name="CR">
          -207 endchar
        </CharString>
        <CharString name="Cacute">
          -19 callgsubr
          24 -13 callgsubr
          66 91 74 109 vstem
          412 107 rmoveto
          -101 callgsubr
          -54 callsubr
          -137 711 rmoveto
          -73 callsubr
        </CharString>
        <CharString name="Ccaron">
          -19 callgsubr
          -29 -66 callsubr
          66 91 -74 300 hintmask 11010100
          412 107 rmoveto
          hintmask 11011000
          -101 callgsubr
          -54 callsubr
          -29 852 -43 callsubr
          hintmask 10100100
          -97 callgsubr
        </CharString>
        <CharString name="Ccedilla">
          -53 -4 callsubr
          36 52 619 51 hstem
          66 91 116 88 vstem
          128 -78 callsubr
          24 34 53 1 56 12 52 20 rlinecurve
          -15 84 rlineto
          -101 callgsubr
          -119 61 -55 81 -15 vhcurveto
          -56 -72 -77 callgsubr
        </CharString>
        <CharString name="Ccircumflex">
          -19 callgsubr
          20 13 callgsubr
          120 251 31 10 vstem
          402 -21 callgsubr
          67 -625 rmoveto
          -101 callgsubr
          -54 callsubr
          endchar
        </CharString>
        <CharString name="Cdotaccent">
          -19 callgsubr
          -31 104 hstem
          66 91 52 100 vstem
          412 107 rmoveto
          -101 callgsubr
          -54 callsubr
          -161 707 -99 callgsubr
          endchar
        </CharString>
        <CharString name="Chi">
          182 -50 callsubr
          hstemhm
          89 472 -469 522 hintmask 11100000
          630 hmoveto
          -220 357 rlineto
          hintmask 11010000
          -59 callgsubr
        </CharString>
        <CharString name="D">
          -5 callgsubr
          hstemhm
          78 329 -137 228 hintmask 10010000
          286 hmoveto
          -21 callsubr
          hintmask 01100000
          132 -77 95 -155 vhcurveto
          -188 hlineto
          hintmask 10100000
          -701 vlineto
          hintmask 01100000
          14 callgsubr
          hintmask 10010000
          -20 callsubr
          hintmask 01100000
          75 56 -36 -91 hvcurveto
          endchar
        </CharString>
        <CharString name="Dcaron">
          -5 callgsubr
          -20 -66 callsubr
          78 329 -306 300 -131 228 hintmask 10010100
          286 hmoveto
          hintmask 01010010
          -21 callsubr
          132 -77 95 -155 vhcurveto
          hintmask 01011000
          -188 hlineto
          hintmask 10011000
          -701 vlineto
          hintmask 01011000
          14 callgsubr
          hintmask 10010010
          -20 callsubr
          hintmask 01011000
          75 56 -36 -91 hvcurveto
          9 391 -43 callsubr
          hintmask 10100100
          -97 callgsubr
        </CharString>
        <CharString name="Dcroat">
          -5 callgsubr
          29 79 hstemhm
          78 329 -290 334 -181 228 hintmask 10101000
          286 hmoveto
          hintmask 01100100
          -21 callsubr
          132 -77 95 -155 vhcurveto
          hintmask 01110000
          -188 hlineto
          hintmask 10110000
          -701 vlineto
          hintmask 01110000
          14 callgsubr
          hintmask 10100100
          -20 callsubr
          hintmask 01110000
          75 56 -36 -91 hvcurveto
          -15 246 -47 callsubr
        </CharString>
        <CharString name="Delta">
          135 0 65 557 91 hstem
          97 586 vstem
          -42 callgsubr
        </CharString>
        <CharString name="E">
          -44 callsubr
          -17 callgsubr
          vstem
          -12 callgsubr
          -70 callgsubr
          hlineto
          endchar
        </CharString>
        <CharString name="Eacute">
          -44 callsubr
          30 1 callsubr
          72 109 vstem
          -12 callgsubr
          -70 callgsubr
          hlineto
          222 730 rmoveto
          -73 callsubr
        </CharString>
        <CharString name="Ecaron">
          -44 callsubr
          -19 -66 callsubr
          77 300 -299 91 hintmask 11011000
          3 callsubr
          vlineto
          hintmask 11010100
          -61 callsubr
          hlineto
          -50 callgsubr
          -70 callgsubr
          hlineto
          314 19 callsubr
          hintmask 10101000
          -97 callgsubr
        </CharString>
        <CharString name="Ecircumflex">
          -44 callsubr
          30 142 -18 callsubr
          -59 251 hintmask 11101000
          3 callsubr
          vlineto
          hintmask 11110000
          -61 callsubr
          hlineto
          -50 callgsubr
          -70 callgsubr
          hlineto
          314 -21 callgsubr
          endchar
        </CharString>
        <CharString name="Edieresis">
          -44 callsubr
          -17 callgsubr
          vstem
          -12 callgsubr
          -70 callgsubr
          hlineto
          134 771 -107 callsubr
          endchar
        </CharString>
        <CharString name="Edotaccent">
          -44 callsubr
          -21 104 -18 callsubr
          30 100 hintmask 10111000
          -16 callgsubr
          hintmask 11011000
          -70 callgsubr
          vlineto
          178 730 -99 callgsubr
          endchar
        </CharString>
        <CharString name="Egrave">
          -44 callsubr
          30 2 callsubr
          91 -8 119 96 109 hintmask 11101100
          3 callsubr
          vlineto
          hintmask 11110100
          -61 callsubr
          hlineto
          -50 callgsubr
          -70 callgsubr
          hlineto
          198 732 -100 callsubr
          endchar
        </CharString>
        <CharString name="Emacron">
          -44 callsubr
          30 79 hstemhm
          77 334 -333 91 hintmask 11110000
          3 callsubr
          vlineto
          hintmask 11101000
          -61 callsubr
          hlineto
          -50 callgsubr
          -70 callgsubr
          hlineto
          274 730 -47 callsubr
        </CharString>
        <CharString name="Eng">
          165 -17 80 42 58 353 184 -18 callsubr
          -90 110 289 92 hintmask 11101100
          478 186 rmoveto
          hintmask 11110100
          -60 104 -69 121 -180 289 rrcurveto
          -48 callsubr
          516 hlineto
          91 -153 93 -154 92 -153 rrcurveto
          -16 -19 -24 -3 -19 hhcurveto
          9 -24 10 -26 9 -24 rrcurveto
          81 1 78 54 129 vvcurveto
          553 -153 -86 vlineto
          61 -2 rlineto
          endchar
        </CharString>
        <CharString name="Eogonek">
          12 27 callsubr
          163 82 528 90 -17 callgsubr
          86 68 vstem
          399 -115 -83 callgsubr
          1 82 -61 callsubr
          hlineto
          -50 callgsubr
          -70 callgsubr
          266 hlineto
          -86 -54 -8 -49 -19 -86 callgsubr
          endchar
        </CharString>
        <CharString name="Epsilon">
          -36 0 82 245 80 203 90 -66 80 -18 callsubr
          hintmask 11011000
          -16 callgsubr
          hintmask 11101000
          -70 callgsubr
          vlineto
          endchar
        </CharString>
        <CharString name="Epsilontonos">
          131 0 50 32 243 243 -35 callgsubr
          -64 52 hstemhm
          82 109 -103 109 48 56 276 2 hintmask 1110010110000000
          141 568 rmoveto
          hintmask 1101001110000000
          56 73 21 27 -10 28 -23 10 rlinecurve
          -16 7 -31 -5 -12 -29 rrcurveto
          hintmask 1110010110000000
          -72 callgsubr
          rlineto
          499 -568 rmoveto
          -34 callsubr
          -34 callgsubr
          hlineto
          hintmask 1100110110000000
          5 callsubr
        </CharString>
        <CharString name="Eta">
          96 21 -21 327 80 307 -20 hstemhm
          72 56 -48 19 callgsubr
          -64 56 49 95 hintmask 1111011010000000
          510 24 callsubr
          -90 -287 vlineto
          hintmask 1110110110000000
          -249 287 -48 callsubr
          325 hlineto
          hintmask 1111011010000000
          22 callsubr
          hlineto
          endchar
        </CharString>
        <CharString name="Etatonos">
          229 568 -35 callgsubr
          hstemhm
          80 109 50 56 -48 19 callgsubr
          -64 56 hintmask 10110101
          -65 callgsubr
          hintmask 01110110
          599 -568 rmoveto
          700 -90 -287 vlineto
          hintmask 01101101
          -249 287 -48 callsubr
          325 hlineto
          hintmask 01110110
          22 callsubr
          hlineto
          endchar
        </CharString>
        <CharString name="Eth">
          157 0 50 -50 425 -87 80 19 80 -4 188 -51 51 hstemhm
          78 527 -478 56 -56 327 -277 320 -279 329 -56 56 hintmask 0101010001000000
          335 hmoveto
          hintmask 1011010100010000
          115 97 45 155 hvcurveto
          hintmask 0101010100100000
          225 vlineto
          hintmask 0101011000000000
          58 hlineto
          hintmask 1010101000000000
          88 -61 vlineto
          111 -14 -76 77 -139 hhcurveto
          hintmask 1010100100010000
          -188 -188 hlineto
          hintmask 1010101000000000
          -49 hlineto
          hintmask 0101011000000000
          -88 vlineto
          hintmask 0101010100100000
          49 -425 hlineto
          14 callgsubr
          -98 -76 -9 -61 vhcurveto
          -101 342 238 hlineto
          -131 186 rmoveto
          hintmask 1010100010010000
          66 52 -29 -69 11 hvcurveto
          hintmask 1010100100100000
          -236 98 hlineto
          endchar
        </CharString>
        <CharString name="Euro">
          50 -12 75 67 80 35 55 58 56 220 75 hstemhm
          78 320 -279 53 -35 91 189 53 hintmask 1111101010000000
          483 103 rmoveto
          hintmask 1111100110000000
          -123 -38 -132 -9 125 vvcurveto
          36 vlineto
          6 callsubr
          48 hlineto
          6 callsubr
          68 hlineto
          77 60 27 56 33 35 -5 -13 35 vhcurveto
          26 78 -78 40 -106 6 -65 -38 rlinecurve
          -53 -32 -34 -40 -109 vvcurveto
          -59 vlineto
          17 callgsubr
          -48 hlineto
          17 callgsubr
          -38 hlineto
          -54 callsubr
          endchar
        </CharString>
        <CharString name="F">
          -36 610 90 -17 callgsubr
          80 79 vstem
          169 hmoveto
          325 119 vlineto
          32 88 rlineto
          -151 -70 callgsubr
          hlineto
          endchar
        </CharString>
        <CharString name="G">
          -3 callgsubr
          hstemhm
          65 91 229 91 hintmask 01111000
          476 hmoveto
          -102 callsubr
          hintmask 10111000
          -41 callgsubr
          hintmask 01111000
          9 -20 rlineto
          endchar
        </CharString>
        <CharString name="Gamma">
          -36 32 callgsubr
          hstem
          79 105 vstem
          170 hmoveto
          610 242 5 callsubr
        </CharString>
        <CharString name="Gbreve">
          -3 callgsubr
          131 0 36 -20 hstemhm
          65 91 77 156 -4 91 hintmask 01111101
          476 hmoveto
          -102 callsubr
          hintmask 10111101
          -41 callgsubr
          hintmask 01111101
          9 -20 rlineto
          hintmask 10111110
          -5 846 -99 callsubr
          endchar
        </CharString>
        <CharString name="Gcircumflex">
          -3 callgsubr
          20 142 hstemhm
          65 91 -11 251 -11 91 hintmask 01111010
          476 hmoveto
          -102 callsubr
          hintmask 10110100
          -142 106 -57 105 vhcurveto
          hintmask 10111010
          48 33 11 19 28 hvcurveto
          hintmask 01110100
          9 -20 rlineto
          hintmask 01111010
          33 -21 callgsubr
          endchar
        </CharString>
        <CharString name="Gcommaaccent">
          52 23 callgsubr
          1 30 1 -21 659 51 hstemhm
          65 91 70 37 122 91 hintmask 10111110
          476 hmoveto
          -102 callsubr
          hintmask 11011110
          -41 callgsubr
          hintmask 10111110
          9 -20 rlineto
          -141 -206 -106 callgsubr
          endchar
        </CharString>
        <CharString name="Gdotaccent">
          81 -17 80 615 104 -68 -20 hstem
          74 91 71 100 68 91 vstem
          293 729 -99 callgsubr
          203 -729 rmoveto
          -102 callsubr
          -41 callgsubr
          9 -20 rlineto
          endchar
        </CharString>
        <CharString name="H">
          103 78 91 118 -38 callgsubr
          endchar
        </CharString>
        <CharString name="Hbar">
          200 389 80 hstemhm
          78 527 -478 19 callgsubr
          hintmask 10111000
          557 hmoveto
          476 vlineto
          hintmask 11000000
          48 88 hlineto
          hintmask 10111000
          -48 136 -90 -136 -249 136 -91 -136 hlineto
          hintmask 11000000
          -49 -88 hlineto
          hintmask 10111000
          49 -476 91 325 22 callsubr
          hlineto
          413 vmoveto
          -249 63 249 hlineto
          endchar
        </CharString>
        <CharString name="Hcircumflex">
          103 730 13 callgsubr
          78 91 -1 251 -132 -38 callgsubr
          32 -21 callgsubr
          endchar
        </CharString>
        <CharString name="I">
          -189 126 92 vstem
          218 hmoveto
          -90 callgsubr
          endchar
        </CharString>
        <CharString name="Iacute">
          -114 730 -13 callgsubr
          141 92 -69 109 vstem
          233 hmoveto
          -90 callgsubr
          82 730 rmoveto
          -73 callsubr
        </CharString>
        <CharString name="Icircumflex">
          -37 730 13 callgsubr
          86 251 -155 92 vstem
          274 hmoveto
          -90 callgsubr
          186 -21 callgsubr
          endchar
        </CharString>
        <CharString name="Idieresis">
          -105 158 92 vstem
          250 hmoveto
          -90 callgsubr
          1 769 -107 callsubr
          endchar
        </CharString>
        <CharString name="Idotaccent">
          -165 679 104 hstem
          134 100 -93 92 vstem
          233 hmoveto
          -90 callgsubr
          50 730 -99 callgsubr
          endchar
        </CharString>
        <CharString name="Igrave">
          -169 730 -18 callgsubr
          115 119 -90 92 94 109 vstem
          236 hmoveto
          -90 callgsubr
          86 732 -100 callsubr
          endchar
        </CharString>
        <CharString name="Imacron">
          -111 730 79 hstem
          20 333 -195 92 vstem
          250 hmoveto
          -90 callgsubr
          136 730 6 callgsubr
        </CharString>
        <CharString name="Iogonek">
          -126 27 callsubr
          hstemhm
          90 68 -6 92 hintmask 11000000
          234 -59 callsubr
          hintmask 10100000
          -1 28 26 35 70 58 rrcurveto
          700 -155 -86 vlineto
          63 -2 rlineto
          -612 27 vlineto
          -86 -54 -8 -49 -19 -86 callgsubr
          endchar
        </CharString>
        <CharString name="Iota">
          -179 -50 callsubr
          hstem
          143 92 -84 56 -44 95 vstem
          235 hmoveto
          -90 callgsubr
          endchar
        </CharString>
        <CharString name="Iotadieresis">
          -107 86 63 1 56 vstem
          166 771 -107 callsubr
          -25 -731 rmoveto
          -90 callgsubr
          endchar
        </CharString>
        <CharString name="Iotatonos">
          -58 568 -35 callgsubr
          hstemhm
          123 109 67 92 -54 56 hintmask 01110000
          391 hmoveto
          -90 callgsubr
          hintmask 10101000
          -158 568 rmoveto
          -73 callsubr
        </CharString>
        <CharString name="Itilde">
          18 718 9 callgsubr
          78 345 -208 92 hintmask 01010000
          307 hmoveto
          -90 callgsubr
          172 821 rmoveto
          hintmask 10100000
          -103 callgsubr
        </CharString>
        <CharString name="J">
          -264 -17 80 hstem
          92 90 10 78 vstem
          23 -39 callsubr
          endchar
        </CharString>
        <CharString name="Jcircumflex">
          -212 -17 80 778 0 36 -20 hstemhm
          79 156 -147 90 10 78 hintmask 11101100
          19 -39 callsubr
          hintmask 11110000
          244 809 -99 callsubr
          endchar
        </CharString>
        <CharString name="K">
          27 -50 callsubr
          hstem
          79 96 vstem
          511 -33 callgsubr
          -58 callsubr
          endchar
        </CharString>
        <CharString name="Kappa">
          62 -50 callsubr
          hstemhm
          77 95 -94 96 hintmask 11100000
          510 -33 callgsubr
          hintmask 11010000
          -58 callsubr
          endchar
        </CharString>
        <CharString name="Kcommaaccent">
          27 23 callgsubr
          32 -39 callgsubr
          hstem
          79 96 45 37 vstem
          511 -33 callgsubr
          -58 callsubr
          -152 -206 -106 callgsubr
          endchar
        </CharString>
        <CharString name="L">
          -45 0 80 634 -20 hstem
          78 105 vstem
          439 -37 callsubr
          endchar
        </CharString>
        <CharString name="Lacute">
          -45 0 80 634 -20 37 2 callsubr
          105 -63 109 hintmask 11010000
          439 -37 callsubr
          hintmask 00101000
          101 731 rmoveto
          -73 callsubr
        </CharString>
        <CharString name="Lambda">
          44 0 95 619 -20 hstemhm
          5 614 -500 301 hintmask 11100000
          523 hmoveto
          -212 700 rlineto
          -85 hlineto
          -208 -700 rlineto
          hintmask 11010000
          101 hlineto
          149 510 152 -510 rlineto
          endchar
        </CharString>
        <CharString name="Lcaron">
          55 0 80 601 10 callsubr
          -175 105 hintmask 10100100
          539 -37 callsubr
          hintmask 00011000
          190 875 -5 callsubr
          hintmask 01001000
          -56 -39 148 -141 rlineto
          endchar
        </CharString>
        <CharString name="Lcommaaccent">
          -45 -123 111 12 80 634 -20 hstem
          78 105 36 37 vstem
          439 -37 callsubr
          168 -207 -106 callgsubr
          endchar
        </CharString>
        <CharString name="Lslash">
          104 0 80 634 -20 hstem
          191 95 -95 105 vstem
          552 hmoveto
          83 -270 282 vlineto
          119 54 -32 71 -87 -40 rlineto
          250 -91 -291 vlineto
          -113 -51 31 -70 82 37 rlineto
          28 callgsubr
          endchar
        </CharString>
        <CharString name="M">
          209 0 184 -163 -21 427 273 -17 callgsubr
          354 91 vstem
          614 hmoveto
          30 callgsubr
          -176 516 rlineto
          -48 callsubr
          427 hlineto
          138 -427 rlineto
          76 hlineto
          18 callgsubr
        </CharString>
        <CharString name="Mu">
          202 0 114 -114 184 243 273 -165 165 -106 120 hstemhm
          72 56 -48 91 354 91 -64 56 93 90 hintmask 0100110101000000
          616 hmoveto
          hintmask 0101010101000000
          30 callgsubr
          rlineto
          hintmask 1001001011000000
          -176 516 rlineto
          -48 callsubr
          hlineto
          hintmask 1010001011000000
          427 vlineto
          138 -427 rlineto
          76 hlineto
          hintmask 0100110101000000
          18 callgsubr
        </CharString>
        <CharString name="N">
          -30 callgsubr
          -17 callgsubr
          63 79 167 92 vstem
          -89 callgsubr
          endchar
        </CharString>
        <CharString name="Nacute">
          -30 callgsubr
          30 1 callsubr
          63 79 -29 109 87 92 vstem
          -89 callgsubr
          -137 730 rmoveto
          -73 callsubr
        </CharString>
        <CharString name="Ncaron">
          -30 callgsubr
          -19 -66 callsubr
          78 91 63 79 167 92 hintmask 11011110
          -89 callgsubr
          -4 19 callsubr
          hintmask 10101110
          -97 callgsubr
        </CharString>
        <CharString name="Ncommaaccent">
          165 -119 111 8 186 330 184 -18 callsubr
          63 79 -24 37 154 92 hintmask 11111010
          -89 callgsubr
          -164 -203 -103 callsubr
          hintmask 11110110
          -85 callgsubr
        </CharString>
        <CharString name="Ntilde">
          -30 callgsubr
          33 9 callgsubr
          78 91 -11 345 -271 79 167 92 hintmask 11011011
          -89 callgsubr
          -11 836 rmoveto
          hintmask 11100100
          -103 callgsubr
        </CharString>
        <CharString name="Nu">
          158 0 135 -135 186 330 184 -127 141 -117 103 hstemhm
          72 56 -48 91 -90 90 63 79 167 92 -12 90 hintmask 0101010011000000
          572 hmoveto
          hintmask 0100110011000000
          700 -92 -514 vlineto
          hintmask 1000101010100000
          -309 514 rlineto
          -48 callsubr
          hlineto
          hintmask 1010000110100000
          516 vlineto
          hintmask 0101010011000000
          309 -516 rlineto
          endchar
        </CharString>
        <CharString name="O">
          -43 callgsubr
          hstem
          63 91 108 81 49 91 vstem
          -106 callsubr
          endchar
        </CharString>
        <CharString name="OE">
          292 0 42 -42 82 528 90 -80 96 -68 52 -18 callsubr
          -60 56 112 81 49 91 -25 56 hintmask 0100101101000000
          739 hmoveto
          82 vlineto
          hintmask 0110001110000000
          -241 92 hlineto
          11 vlineto
          140 129 vlineto
          -50 callgsubr
          93 hlineto
          9 vlineto
          95 243 90 -334 -12 vlineto
          hintmask 1001001101000000
          18 -32 -39 10 -46 hhcurveto
          hintmask 1000110101000000
          -75 callsubr
          vhcurveto
          hintmask 0100101110000000
          40 42 8 19 36 hvcurveto
          -16 vlineto
          193 vmoveto
          -72 -3 -47 -41 -69 hhcurveto
          hintmask 1001010101000000
          -25 callsubr
          85 31 48 88 vhcurveto
          hintmask 1000101110000000
          84 32 -45 -77 3 hvcurveto
          endchar
        </CharString>
        <CharString name="Oacute">
          -43 callgsubr
          14 -13 callgsubr
          63 91 107 109 -108 81 49 91 vstem
          -106 callsubr
          -72 244 rmoveto
          -73 callsubr
        </CharString>
        <CharString name="Ocircumflex">
          -43 callgsubr
          14 13 callgsubr
          63 91 -15 251 -128 81 49 91 vstem
          -106 callsubr
          29 285 -105 callsubr
          endchar
        </CharString>
        <CharString name="Odieresis">
          -43 callgsubr
          hstem
          63 91 108 81 49 91 vstem
          -106 callsubr
          -151 285 -107 callsubr
          endchar
        </CharString>
        <CharString name="Ograve">
          -43 callgsubr
          14 -18 callgsubr
          63 91 29 119 -40 81 49 91 -85 109 vstem
          -106 callsubr
          -94 246 -100 callsubr
          endchar
        </CharString>
        <CharString name="Ohungarumlaut">
          -43 callgsubr
          17 -9 callgsubr
          63 91 10 109 -11 81 -48 109 -12 91 hintmask 11110101
          483 506 rmoveto
          -68 callsubr
          -73 callgsubr
          vhcurveto
          -93 callgsubr
          hintmask 11111010
          -76 -48 -43 -71 -75 -44 44 74 vhcurveto
          -61 callgsubr
          vhcurveto
          hintmask 11110101
          -33 callsubr
          hvcurveto
          -38 247 rmoveto
          -107 callgsubr
          -68 hmoveto
          -73 callsubr
        </CharString>
        <CharString name="Omacron">
          -43 callgsubr
          14 79 hstem
          63 91 -52 334 -174 81 49 91 vstem
          -106 callsubr
          -15 244 -47 callsubr
        </CharString>
        <CharString name="Omega">
          144 0 66 573 67 hstem
          345 100 183 81 vstem
          592 -60 callgsubr
          -63 callgsubr
          endchar
        </CharString>
        <CharString name="Omegatonos">
          238 0 66 502 -35 callgsubr
          -73 67 hstemhm
          80 109 -107 109 18 81 149 100 183 81 hintmask 1010011110000000
          686 -60 callgsubr
          hintmask 1010101110000000
          -63 callgsubr
          hintmask 1100011110000000
          -317 568 rmoveto
          56 73 rlineto
          hintmask 1001011110000000
          21 27 -10 28 -23 30 callsubr
          hintmask 1100011110000000
          -72 callgsubr
          rlineto
          endchar
        </CharString>
        <CharString name="Omicron">
          58 -17 80 557 96 -65 80 hstemhm
          54 56 -48 8 callgsubr
          hintmask 1011001101000000
          482 506 rmoveto
          hintmask 1101001011000000
          -68 callsubr
          vhcurveto
          hintmask 1010011011000000
          -75 callsubr
          vhcurveto
          hintmask 1011001101000000
          -8 callsubr
          hintmask 1010101011000000
          -25 callsubr
          hintmask 1101001011000000
          85 31 48 88 vhcurveto
          hintmask 1011001101000000
          -33 callsubr
          hvcurveto
          endchar
        </CharString>
        <CharString name="Omicrontonos">
          167 0 42 526 -35 callgsubr
          -92 96 hstemhm
          82 109 -104 109 -1 56 -56 91 108 81 49 91 -55 55 hintmask 1010010010100000
          615 506 rmoveto
          hintmask 1001010010100000
          -68 callsubr
          vhcurveto
          hintmask 1010101011000000
          -128 -84 -68 -141 hvcurveto
          -93 callgsubr
          -76 -48 -43 -71 vhcurveto
          hintmask 1010100110100000
          -25 callsubr
          hintmask 1001010011000000
          85 31 48 88 -33 callsubr
          vhcurveto
          hintmask 1100010010100000
          -383 82 rmoveto
          -73 callsubr
        </CharString>
        <CharString name="Oslash">
          65 0 42 43 631 15 -20 hstemhm
          83 329 -232 323 -221 81 hintmask 10100100
          183 25 callgsubr
          39 112 rlineto
          -6 23 25 -3 24 hhcurveto
          hintmask 10101000
          99 110 49 147 hvcurveto
          321 vlineto
          63 -18 51 -33 37 vhcurveto
          56 160 rlineto
          -98 hlineto
          -39 -112 rlineto
          hintmask 11000100
          7 -23 -25 4 -28 hhcurveto
          hintmask 10110000
          -73 callgsubr
          hvcurveto
          -322 vlineto
          -67 22 -46 35 -31 vhcurveto
          -54 -155 rlineto
          hintmask 10101000
          94 269 rmoveto
          -4 13 -2 14 16 vvcurveto
          -61 callgsubr
          18 15 -2 -4 13 vhcurveto
          hintmask 10110000
          73 -415 rmoveto
          -76 -48 -43 -71 vhcurveto
          hintmask 11000100
          -15 -13 1 4 -13 hvcurveto
          156 446 rlineto
          hintmask 10110000
          2 -14 2 -15 -16 vvcurveto
          endchar
        </CharString>
        <CharString name="Otilde">
          -43 callgsubr
          19 9 callgsubr
          63 91 -43 345 -194 81 49 91 hintmask 11011011
          -106 callsubr
          28 352 rmoveto
          hintmask 11100100
          -103 callgsubr
        </CharString>
        <CharString name="P">
          64 0 610 -589 -21 hstem
          78 79 12 0 143 109 vstem
          169 300 rmoveto
          -47 callgsubr
          124 -57 105 -143 hvcurveto
          -234 -700 hlineto
          endchar
        </CharString>
        <CharString name="Phi">
          157 -17 80 588 80 -20 -20 hstemhm
          210 105 347 95 120 95 hintmask 11011100
          385 -35 rmoveto
          55 32 vlineto
          144 44 89 116 hvcurveto
          286 vlineto
          hintmask 10111100
          120 -69 80 -118 -62 -59 -38 -68 -4 vhcurveto
          -511 -27 vlineto
          -76 -21 52 92 hvcurveto
          279 vlineto
          85 29 19 44 15 vhcurveto
          -48 28 callsubr
          -292 vlineto
          -116 42 -89 146 vhcurveto
          27 -42 hlineto
          92 116 rmoveto
          469 vlineto
          25 0 33 49 51 28 -44 -100 vhcurveto
          -239 vlineto
          -92 -20 -52 -76 vhcurveto
          endchar
        </CharString>
        <CharString name="Pi">
          96 32 callgsubr
          0 -20 hstem
          80 91 78 95 -53 105 23 91 vstem
          510 24 callsubr
          -430 -700 91 609 248 -609 vlineto
          endchar
        </CharString>
        <CharString name="Psi">
          147 277 78 vstem
          363 hmoveto
          212 32 -6 callsubr
          143 vlineto
          61 1 63 -57 36 vhcurveto
          -80 -33 rlineto
          27 -22 19 -4 -86 vvcurveto
          -137 vlineto
          -92 -22 -43 -76 vhcurveto
          -32 408 -91 -408 -28 hlineto
          -76 -21 41 92 hvcurveto
          275 -91 -294 vlineto
          -116 57 -78 131 vhcurveto
          28 hlineto
          1 -212 rlineto
          endchar
        </CharString>
        <CharString name="Q">
          64 -108 99 112 -21 539 95 hstem
          63 91 72 92 74 91 vstem
          430 -28 rmoveto
          -48 -1 -25 5 -18 22 rrcurveto
          65 12 79 51 124 vvcurveto
          321 vlineto
          -68 callsubr
          -73 callgsubr
          vhcurveto
          -322 vlineto
          -143 104 -45 79 -6 vhcurveto
          25 -59 51 -42 99 2 rrcurveto
          -29 295 rmoveto
          -47 -18 -55 -55 -3 vhcurveto
          -2 17 1 17 22 vvcurveto
          36 -92 -37 vlineto
          -21 -1 -17 3 -18 vhcurveto
          -54 2 -20 64 39 vvcurveto
          323 vlineto
          66 31 46 88 89 30 -56 -56 vhcurveto
          endchar
        </CharString>
        <CharString name="R">
          79 300 400 -18 callsubr
          0 343 hintmask 10100000
          -15 callsubr
          -51 callsubr
          hintmask 11000000
          -94 callsubr
          endchar
        </CharString>
        <CharString name="Racute">
          79 300 400 30 2 callsubr
          91 0 343 -281 109 hintmask 11101000
          -15 callsubr
          hintmask 11010000
          -51 callsubr
          hintmask 11101000
          -94 callsubr
          -14 430 rmoveto
          -73 callsubr
        </CharString>
        <CharString name="Rcaron">
          79 300 400 -19 -66 callsubr
          78 91 -58 300 -242 343 hintmask 10101000
          -15 callsubr
          hintmask 10100100
          -51 callsubr
          hintmask 10110000
          -94 callsubr
          122 575 -43 callsubr
          hintmask 01001000
          -97 callgsubr
        </CharString>
        <CharString name="Rcommaaccent">
          79 -124 111 313 400 -18 callsubr
          0 343 -276 37 hintmask 11010000
          -15 callsubr
          -51 callsubr
          hintmask 11101000
          -94 callsubr
          -41 -508 -106 callgsubr
          endchar
        </CharString>
        <CharString name="Rho">
          64 0 610 -589 -21 292 80 262 80 -67 53 hstemhm
          70 56 -48 95 -4 0 143 109 27 56 11 95 hintmask 0111010111100000
          169 300 rmoveto
          hintmask 1001010111100000
          -47 callgsubr
          hvcurveto
          hintmask 0110110111100000
          124 -57 105 -143 vhcurveto
          hintmask 1100101011100000
          -234 -700 hlineto
          endchar
        </CharString>
        <CharString name="S">
          0 callsubr
          32 callsubr
          245 29 -14 100 hintmask 11100100
          -69 callgsubr
          hintmask 11011000
          -91 callgsubr
          hintmask 11100100
          -70 callsubr
          endchar
        </CharString>
        <CharString name="Sacute">
          0 callsubr
          3 143 32 callsubr
          91 109 45 29 -14 100 hintmask 11110101
          -69 callgsubr
          hintmask 11101110
          -91 callgsubr
          hintmask 11110101
          -70 callsubr
          168 545 rmoveto
          -73 callsubr
        </CharString>
        <CharString name="Scaron">
          0 callsubr
          -1 142 -46 47 32 callsubr
          -24 300 -283 251 1 29 -14 100 hintmask 1101100101000000
          -69 callgsubr
          hintmask 1101010010000000
          -91 callgsubr
          hintmask 1101100101000000
          -70 callsubr
          309 735 -43 callsubr
          hintmask 1010001000000000
          -97 callgsubr
        </CharString>
        <CharString name="Scircumflex">
          0 callsubr
          94 47 32 callsubr
          -19 251 13 29 -14 100 hintmask 11110001
          -69 callgsubr
          hintmask 11101010
          -91 callgsubr
          hintmask 11100101
          -226 358 70 -196 vvcurveto
          -60 -50 -47 -90 vhcurveto
          hintmask 11110001
          -82 -50 51 60 -6 hvcurveto
          281 582 -105 callsubr
          endchar
        </CharString>
        <CharString name="Scommaaccent">
          76 23 callgsubr
          -6 80 588 80 32 callsubr
          77 93 75 29 -14 100 hintmask 01110101
          37 178 rmoveto
          hintmask 10101101
          -89 3 78 -100 155 hhcurveto
          171 68 93 111 239 -353 -24 -7 122 hvcurveto
          52 -3 45 36 87 hhcurveto
          hintmask 01101110
          43 36 -9 -15 37 hvcurveto
          12 36 17 49 1 vvcurveto
          19 -40 -37 11 -69 hhcurveto
          -155 -71 -89 -84 hvcurveto
          hintmask 01110101
          -70 callsubr
          122 -395 -58 callgsubr
        </CharString>
        <CharString name="Sigma">
          98 -14 callsubr
          hstem
          109 568 -559 487 vstem
          401 hmoveto
          78 45 31 75 22 hvcurveto
          -76 39 rlineto
          -47 -16 -26 -15 -49 hhcurveto
          -147 hlineto
          180 304 -151 224 rlineto
          233 hlineto
          28 91 rlineto
          -428 hlineto
          210 -318 -226 -384 rlineto
          endchar
        </CharString>
        <CharString name="T">
          -83 15 callsubr
          hstem
          34 79 40 91 vstem
          244 -68 callgsubr
          endchar
        </CharString>
        <CharString name="Tau">
          32 15 callsubr
          hstem
          112 79 40 91 -74 56 14 95 vstem
          322 -68 callgsubr
          endchar
        </CharString>
        <CharString name="Tbar">
          -83 15 callsubr
          16 79 hstem
          32 334 -332 79 40 91 vstem
          244 -68 callgsubr
          154 730 -47 callsubr
        </CharString>
        <CharString name="Tcaron">
          -83 15 callsubr
          -33 -66 callsubr
          34 79 40 91 hintmask 11011100
          244 -68 callgsubr
          192 19 callsubr
          hintmask 10101100
          -97 callgsubr
        </CharString>
        <CharString name="Tcommaaccent">
          -83 23 callgsubr
          32 -21 634 80 hstemhm
          34 79 38 37 -35 91 hintmask 11110100
          244 -68 callgsubr
          25 -206 -103 callsubr
          hintmask 11111000
          -85 callgsubr
        </CharString>
        <CharString name="Theta">
          72 -17 80 136 517 -478 80 333 80 hstemhm
          92 56 -49 379 -378 8 callgsubr
          hintmask 1011100011010000
          520 506 rmoveto
          hintmask 1100010000010000
          -68 callsubr
          vhcurveto
          hintmask 1011000110110000
          -75 callsubr
          vhcurveto
          hintmask 1011100011010000
          99 110 49 147 hvcurveto
          -91 205 rmoveto
          hintmask 1011001010110000
          -238 97 hlineto
          85 31 48 88 vhcurveto
          hintmask 1011100011010000
          -33 callsubr
          hvcurveto
          hintmask 1100100011010000
          -287 vmoveto
          -76 -48 -43 -71 vhcurveto
          hintmask 1011001010110000
          -75 -44 44 74 hvcurveto
          108 vlineto
          hintmask 1011100011010000
          238 hlineto
          endchar
        </CharString>
        <CharString name="Thorn">
          7 21 -21 116 86 221 86 191 -20 hstem
          78 90 197 90 vstem
          -23 callsubr
          20 callgsubr
          -34 -39 -12 -18 -24 hvcurveto
          221 -90 -700 vlineto
          191 202 rmoveto
          -51 -50 31 87 hvcurveto
          -8 callgsubr
          endchar
        </CharString>
        <CharString name="U">
          -56 callsubr
          hstem
          74 91 239 91 vstem
          -105 callgsubr
          endchar
        </CharString>
        <CharString name="Uacute">
          -56 callsubr
          37 -13 callgsubr
          74 91 92 109 38 91 vstem
          -105 callgsubr
          -88 30 rmoveto
          -73 callsubr
        </CharString>
        <CharString name="Ubreve">
          -56 callsubr
          143 0 36 -20 hstem
          74 91 76 156 7 91 vstem
          -105 callgsubr
          -7 141 -99 callsubr
          endchar
        </CharString>
        <CharString name="Ucircumflex">
          -56 callsubr
          36 142 hstemhm
          74 91 -17 251 5 91 hintmask 11101100
          404 212 rmoveto
          -28 callgsubr
          vhcurveto
          hintmask 11110100
          -27 callgsubr
          hvcurveto
          489 -91 -515 vlineto
          -147 112 -46 99 99 111 46 16 callsubr
          515 -91 vlineto
          26 70 -105 callsubr
          endchar
        </CharString>
        <CharString name="Udieresis">
          -56 callsubr
          hstem
          74 91 239 91 vstem
          -105 callgsubr
          -151 70 -107 callsubr
          endchar
        </CharString>
        <CharString name="Ugrave">
          -56 callsubr
          36 -18 callgsubr
          74 91 36 119 84 91 -79 109 vstem
          -105 callgsubr
          -88 31 -100 callsubr
          endchar
        </CharString>
        <CharString name="Uhungarumlaut">
          -56 callsubr
          39 -13 callgsubr
          74 91 24 109 22 109 -25 91 vstem
          -105 callgsubr
          -25 32 rmoveto
          -107 callgsubr
          -68 hmoveto
          -73 callsubr
        </CharString>
        <CharString name="Umacron">
          -56 callsubr
          36 79 hstem
          74 91 -49 334 -46 91 vstem
          -105 callgsubr
          -13 29 -47 callsubr
        </CharString>
        <CharString name="Uogonek">
          81 27 callsubr
          146 80 651 -20 hstem
          74 91 10 68 161 91 vstem
          319 -11 callgsubr
          28 25 33 66 56 rrcurveto
          87 10 84 52 128 vvcurveto
          515 -91 -489 vlineto
          -28 callgsubr
          -27 callgsubr
          vhcurveto
          489 -91 -515 vlineto
          -133 90 -50 91 -8 vhcurveto
          -78 -52 -7 -46 -19 -86 callgsubr
          endchar
        </CharString>
        <CharString name="Upsilon">
          71 -50 callsubr
          hstemhm
          60 56 -56 91 127 95 40 91 -57 57 hintmask 11101010
          370 -15 -54 callgsubr
          vlineto
          hintmask 11011100
          -91 -337 hlineto
          -98 callsubr
          -82 -38 -19 -32 -6 vhcurveto
          endchar
        </CharString>
        <CharString name="Upsilon_alt">
          26 56 79 vstem
          285 hmoveto
          -97 callsubr
          endchar
        </CharString>
        <CharString name="Upsilondieresis">
          74 -50 callsubr
          hstemhm
          78 56 -56 91 262 91 -57 57 hintmask 11100100
          388 -15 -54 callgsubr
          vlineto
          hintmask 11011000
          -91 -337 hlineto
          -98 callsubr
          -82 -38 -19 -32 -6 vhcurveto
          -90 718 -107 callsubr
          endchar
        </CharString>
        <CharString name="Upsilondieresis_alt">
          29 58 79 vstem
          205 769 -107 callsubr
          -18 -729 rmoveto
          -97 callsubr
          endchar
        </CharString>
        <CharString name="Upsilontonos">
          233 21 -21 568 143 3 -20 hstemhm
          87 10 callgsubr
          hintmask 11011011
          -65 callgsubr
          469 -583 -54 callgsubr
          vlineto
          hintmask 10111101
          -91 -337 hlineto
          -98 callsubr
          hintmask 10111011
          -82 -38 -19 -32 -6 vhcurveto
          endchar
        </CharString>
        <CharString name="Upsilontonos_alt">
          233 21 -21 568 -35 callgsubr
          2 -20 hstem
          82 109 -104 10 callgsubr
          vstem
          -65 callgsubr
          449 -568 rmoveto
          -97 callsubr
          endchar
        </CharString>
        <CharString name="Uring">
          -56 callsubr
          33 23 callsubr
          hstemhm
          74 91 76 23 callsubr
          77 91 hintmask 11101011
          -105 callgsubr
          -77 69 -2 callsubr
          hintmask 11011101
          -32 callsubr
          hintmask 11101011
          14 callsubr
          -63 callsubr
        </CharString>
        <CharString name="Utilde">
          -56 callsubr
          42 9 callgsubr
          74 91 -45 345 -61 91 hintmask 11011010
          -105 callgsubr
          25 138 rmoveto
          hintmask 11100100
          -103 callgsubr
        </CharString>
        <CharString name="V">
          108 0 95 -74 -39 callgsubr
          hstem
          180 272 vstem
          373 hmoveto
          183 700 rlineto
          -104 hlineto
          -135 -535 -137 535 rlineto
          -102 hlineto
          184 -700 rlineto
          endchar
        </CharString>
        <CharString name="W">
          326 0 120 -99 -21 600 114 0 -20 hstem
          78 696 vstem
          630 hmoveto
          144 700 rlineto
          -103 hlineto
          -98 -512 -107 512 rlineto
          -78 hlineto
          -107 -512 -103 512 rlineto
          -100 hlineto
          145 -700 rlineto
          113 hlineto
          91 439 92 -439 rlineto
          endchar
        </CharString>
        <CharString name="X">
          186 -50 callsubr
          hstem
          92 522 vstem
          630 hmoveto
          -220 357 -59 callgsubr
        </CharString>
        <CharString name="Xi">
          139 0 80 515 106 -67 80 103 55 hstemhm
          109 568 -512 56 221 121 hintmask 10111000
          469 325 rmoveto
          88 -264 -88 vlineto
          322 286 rmoveto
          hintmask 11011000
          21 90 rlineto
          -325 hlineto
          -78 -45 -31 -75 -22 hvcurveto
          65 -38 rlineto
          35 12 30 19 52 hhcurveto
          hintmask 10110110
          205 -611 rmoveto
          78 45 31 75 22 hvcurveto
          -75 39 rlineto
          -47 -16 -31 -14 -49 hhcurveto
          -272 hlineto
          -27 -84 rlineto
          endchar
        </CharString>
        <CharString name="Y">
          67 -50 callsubr
          hstem
          52 91 262 91 vstem
          362 -15 -54 callgsubr
          -91 -337 vlineto
          -98 callsubr
          -82 -38 -19 -32 -6 vhcurveto
          endchar
        </CharString>
        <CharString name="Y_alt">
          24 53 79 vstem
          282 hmoveto
          -97 callsubr
          endchar
        </CharString>
        <CharString name="Yacute">
          67 -50 callsubr
          37 -13 callgsubr
          52 91 105 109 48 91 vstem
          362 -15 -54 callgsubr
          -91 -337 vlineto
          -98 callsubr
          -82 -38 -19 -32 -6 vhcurveto
          -28 678 rmoveto
          -73 callsubr
        </CharString>
        <CharString name="Yacute_alt">
          25 731 -9 callgsubr
          54 79 77 109 hintmask 10100000
          269 731 rmoveto
          -107 callgsubr
          hintmask 01000000
          77 -731 rmoveto
          -97 callsubr
          endchar
        </CharString>
        <CharString name="Ydieresis">
          67 -50 callsubr
          hstem
          52 91 262 91 vstem
          362 -15 -54 callgsubr
          -91 -337 vlineto
          -98 callsubr
          -82 -38 -19 -32 -6 vhcurveto
          -91 718 -107 callsubr
          endchar
        </CharString>
        <CharString name="Ydieresis_alt">
          16 45 79 vstem
          274 hmoveto
          -97 callsubr
          14 771 -107 callsubr
          endchar
        </CharString>
        <CharString name="Z">
          65 -14 callsubr
          hstem
          31 487 vstem
          518 -80 callgsubr
          endchar
        </CharString>
        <CharString name="Zacute">
          65 -14 callsubr
          71 -13 callgsubr
          31 487 -310 109 vstem
          518 -80 callgsubr
          236 785 rmoveto
          -73 callsubr
        </CharString>
        <CharString name="Zcaron">
          65 -14 callsubr
          16 -66 callsubr
          31 487 -390 300 -283 251 hintmask 11011000
          518 hmoveto
          85 vlineto
          hintmask 11010010
          -373 hlineto
          367 526 rlineto
          89 -468 -89 353 vlineto
          hintmask 11011000
          -366 -528 rlineto
          -83 vlineto
          412 924 -43 callsubr
          hintmask 11100100
          -97 callgsubr
        </CharString>
        <CharString name="Zdotaccent">
          65 -14 callsubr
          -39 104 hstem
          31 487 -287 100 vstem
          518 -80 callgsubr
          257 726 -99 callgsubr
          endchar
        </CharString>
        <CharString name="Zeta">
          117 -14 callsubr
          hstem
          69 568 -559 487 vstem
          565 -80 callgsubr
          endchar
        </CharString>
        <CharString name="_196">
          135 0 65 -44 -21 245 55 322 91 hstemhm
          97 586 -546 386 hintmask 01100100
          hintmask 10011000
          -42 callgsubr
        </CharString>
        <CharString name="a">
          -27 -12 7 callgsubr
          hintmask 11010000
          422 -83 callsubr
          endchar
        </CharString>
        <CharString name="aacute">
          -35 callsubr
          29 143 -98 callgsubr
          -51 268 rmoveto
          -73 callsubr
        </CharString>
        <CharString name="abreve">
          -35 callsubr
          142 0 36 -20 -56 callgsubr
          -197 156 hintmask 11110100
          -40 callsubr
          hintmask 11111000
          -101 callsubr
          hintmask 11110100
          -74 callsubr
          hintmask 11111000
          -91 79 rmoveto
          hintmask 11110100
          -82 callgsubr
          hintmask 11111000
          -76 callsubr
          hintmask 11110010
          50 386 -99 callsubr
          endchar
        </CharString>
        <CharString name="acircumflex">
          -35 callsubr
          28 142 -98 callgsubr
          53 308 -105 callsubr
          endchar
        </CharString>
        <CharString name="acute">
          -263 588 -13 callgsubr
          50 109 vstem
          109 588 rmoveto
          -73 callsubr
        </CharString>
        <CharString name="adieresis">
          -35 callsubr
          -56 callgsubr
          hintmask 11010000
          463 -83 callsubr
          -121 309 -107 callsubr
          endchar
        </CharString>
        <CharString name="ae">
          284 -12 84 111 240 -228 67 6 242 -75 74 -64 64 hstemhm
          78 294 -286 91 195 268 -260 91 -7 268 -190 56 248 56 hintmask 1010100101011000
          673 16 callgsubr
          hintmask 1010100100101000
          -121 -64 -88 14 82 vvcurveto
          hintmask 1100100100101000
          39 vlineto
          268 15 rlineto
          144 vlineto
          hintmask 1011000101011000
          -41 callsubr
          -57 -48 -17 -31 -32 vhcurveto
          hintmask 1010010101011000
          28 -30 -50 19 -84 hhcurveto
          -7 -64 rlineto
          hintmask 1010101001011000
          -101 callsubr
          -212 222 28 158 15 vhcurveto
          24 -9 29 -4 31 1 57 1 61 17 47 29 rrcurveto
          -335 44 rmoveto
          -82 callgsubr
          -76 callsubr
          hintmask 1011000110001000
          268 8 rmoveto
          hintmask 1011000100101000
          -55 callgsubr
          hintmask 1100100101011000
          -29 callgsubr
          hintmask 1010100110001000
          -30 callsubr
          endchar
        </CharString>
        <CharString name="agrave">
          -35 callsubr
          29 143 -56 callgsubr
          -65 109 hintmask 11101000
          -40 callsubr
          hintmask 11110100
          -101 callsubr
          hintmask 11101000
          -74 callsubr
          hintmask 11110100
          -91 79 rmoveto
          hintmask 11101000
          -82 callgsubr
          hintmask 11110100
          -76 callsubr
          -74 270 -100 callsubr
          endchar
        </CharString>
        <CharString name="alpha">
          25 -31 callsubr
          -63 75 hstem
          243 103 135 -82 callsubr
          endchar
        </CharString>
        <CharString name="alphatonos">
          25 -31 callsubr
          -63 75 9 -13 callgsubr
          86 90 65 109 -107 103 -75 109 101 85 -75 -82 callsubr
          -51 143 rmoveto
          -73 callsubr
        </CharString>
        <CharString name="amacron">
          -35 callsubr
          29 79 -98 callgsubr
          14 268 rmoveto
          79 vlineto
          hintmask 11101000
          -217 -79 hlineto
          endchar
        </CharString>
        <CharString name="ampersand">
          71 -12 75 -42 -21 404 -21 hstem
          36 186 10 109 91 93 vstem
          498 61 rmoveto
          -47 16 -19 42 49 vvcurveto
          222 vlineto
          93 19 -20 91 -73 -16 rlineto
          125 vlineto
          -91 -9 rlineto
          -128 vlineto
          -17 -2 -29 -5 -69 23 6 71 rlinecurve
          3 50 53 27 41 -16 52 79 rcurveline
          -118 41 -129 -68 4 -123 2 -61 34 -52 44 -15 -49 -19 -120 -58 -13 -140 rrcurveto
          -111 -10 62 -104 125 hhcurveto
          80 47 35 34 22 hvcurveto
          29 -47 55 -18 36 -4 rrcurveto
          -141 233 rmoveto
          -66 -40 -75 -79 -72 -34 57 67 9 vhcurveto
          14 108 117 37 85 20 rrcurveto
          endchar
        </CharString>
        <CharString name="aogonek">
          7 27 callsubr
          151 7 callgsubr
          -155 68 hintmask 11100100
          411 -115 -83 callgsubr
          hintmask 11101000
          1 298 hlineto
          -89 callsubr
          -181 161 -6 146 11 vhcurveto
          -75 -51 -7 -46 -18 -86 callgsubr
          -125 242 -76 callgsubr
          endchar
        </CharString>
        <CharString name="aring">
          15 -10 callsubr
          152 -86 23 callsubr
          -56 callgsubr
          -245 23 callsubr
          hintmask 10010100
          13 callsubr
          77 0 90 -109 32 vhcurveto
          10 16 6 20 21 vvcurveto
          hintmask 10010001
          60 -49 49 -60 -60 -49 -49 -60 -56 42 -46 54 -6 vhcurveto
          hintmask 11001000
          -1 vlineto
          -101 callsubr
          hintmask 11000100
          -74 callsubr
          hintmask 11001000
          -91 79 rmoveto
          hintmask 11000100
          -82 callgsubr
          hintmask 10101000
          -76 callsubr
          hintmask 10100001
          -68 284 -2 callsubr
          hintmask 10010010
          -32 callsubr
          hintmask 10100001
          14 callsubr
          endchar
        </CharString>
        <CharString name="asciicircum">
          -80 264 433 hstem
          78 290 vstem
          368 758 -105 callsubr
          endchar
        </CharString>
        <CharString name="asciitilde">
          46 183 98 16 81 hstem
          82 401 vstem
          456 379 rmoveto
          -97 -116 -162 204 -119 -148 36 -59 rcurveline
          107 122 157 -212 116 150 rrcurveto
          endchar
        </CharString>
        <CharString name="asterisk">
          -133 714 -20 hstem
          127 96 vstem
          304 460 rmoveto
          -85 80 117 20 -36 86 -99 -59 22 113 rlineto
          -96 hlineto
          21 -113 -100 58 -31 -84 113 -20 -83 -80 80 -57 48 111 48 -111 rlineto
          endchar
        </CharString>
        <CharString name="at">
          262 -17 55 93 68 -66 55 317 68 103 55 hstem
          41 68 75 75 195 80 150 68 vstem
          605 162 rmoveto
          -116 -142 -46 -123 -112 -126 42 148 vhcurveto
          144 vlineto
          133 108 49 122 -3 vhcurveto
          49 -1 61 -20 8 -61 -41 18 -91 27 -73 -27 rrcurveto
          -56 -21 -32 -40 -83 vvcurveto
          -101 vlineto
          13 -197 203 34 169 50 rrcurveto
          223 vlineto
          37 -16 rlineto
          86 vlineto
          -37 15 rlineto
          178 -179 37 -141 -29 vhcurveto
          -92 -18 -113 -68 -157 vvcurveto
          -159 vlineto
          -177 146 -90 175 1 vhcurveto
          140 1 214 51 207 vvcurveto
          -1 177 rlineto
          32 3 29 37 15 vhcurveto
          -27 71 rlineto
          -101 -22 1 -73 -68 vvcurveto
          -153 -182 rmoveto
          -169 -56 -39 67 -1 62 rrcurveto
          70 vlineto
          109 134 -25 75 -38 vhcurveto
          endchar
        </CharString>
        <CharString name="atilde">
          -35 callsubr
          36 9 callgsubr
          78 294 -269 345 -279 294 hintmask 11010010
          -40 callsubr
          hintmask 11011000
          -101 callsubr
          hintmask 11010010
          -74 callsubr
          hintmask 11011000
          -91 79 rmoveto
          hintmask 11010010
          -82 callgsubr
          hintmask 11011000
          -76 callsubr
          40 378 rmoveto
          hintmask 11100100
          -103 callgsubr
        </CharString>
        <CharString name="b">
          -1 700 -20 -17 callgsubr
          188 90 vstem
          447 346 rmoveto
          76 -35 45 -50 23 vhcurveto
          -66 31 -80 -10 -47 -20 rrcurveto
          209 -91 -700 vlineto
          125 -11 77 -16 89 45 rrcurveto
          45 23 33 44 72 vvcurveto
          -90 -2 rmoveto
          -84 -119 -7 -69 15 vhcurveto
          318 vlineto
          46 30 142 20 -122 vvcurveto
          endchar
        </CharString>
        <CharString name="backslash">
          52 4 -21 748 -20 hstemhm
          46 274 -239 456 hintmask 11100000
          497 25 callgsubr
          -324 931 rlineto
          -98 hlineto
          hintmask 01010000
          325 -931 rlineto
          endchar
        </CharString>
        <CharString name="bar">
          -236 -214 1000 -17 callgsubr
          vstem
          169 25 callgsubr
          931 -91 -931 vlineto
          endchar
        </CharString>
        <CharString name="beta">
          0 -12 75 -57 -21 374 68 229 75 hstemhm
          85 101 230 90 -58 90 hintmask 10111100
          168 -161 rmoveto
          hintmask 01111100
          146 vlineto
          hintmask 10111010
          102 -8 178 -8 177 vvcurveto
          184 vlineto
          93 -57 49 -57 16 vhcurveto
          69 76 -54 144 -128 hhcurveto
          -98 -52 -66 -98 hvcurveto
          -698 vlineto
          280 342 rmoveto
          -119 -80 0 -110 18 vhcurveto
          308 vlineto
          84 40 106 2 -123 vvcurveto
          -190 223 rmoveto
          49 11 31 49 54 21 -84 -21 -64 vhcurveto
          -33 -10 -5 -1 -33 -16 rrcurveto
          endchar
        </CharString>
        <CharString name="braceleft">
          -141 -116 77 271 68 449 73 hstemhm
          78 105 -31 91 68 13 hintmask 11101100
          307 -39 rmoveto
          -38 10 -26 29 79 vvcurveto
          174 vlineto
          hintmask 11110100
          41 -44 45 -16 16 vhcurveto
          16 16 42 45 40 vvcurveto
          175 vlineto
          79 31 30 33 9 vhcurveto
          -25 73 rlineto
          -102 -28 -28 -63 -164 vvcurveto
          -105 vlineto
          -41 -49 -49 -23 -18 vhcurveto
          hintmask 11101100
          23 -21 51 -44 -42 vvcurveto
          -120 vlineto
          -165 31 -42 98 -36 vhcurveto
          endchar
        </CharString>
        <CharString name="braceright">
          -141 -116 37 -37 77 271 68 -47 203 293 73 -37 37 hstemhm
          61 13 29 60 -21 91 -70 70 -31 105 hintmask 0110011100100000
          104 -116 rmoveto
          hintmask 1010011001000000
          98 36 31 42 165 vvcurveto
          120 vlineto
          hintmask 1010101100100000
          42 51 44 23 21 vhcurveto
          -23 18 -49 49 41 vvcurveto
          105 vlineto
          164 -28 63 -102 28 vhcurveto
          -25 -73 rlineto
          33 -9 31 -30 -79 vvcurveto
          hintmask 1001011100100000
          -175 vlineto
          -40 42 -45 16 -16 vhcurveto
          hintmask 0101011010000000
          -16 -16 -44 -45 -41 vvcurveto
          -174 vlineto
          -79 -26 -29 -38 -10 vhcurveto
          endchar
        </CharString>
        <CharString name="bracketleft">
          25 callsubr
          78 91 vstem
          239 25 callgsubr
          84 vlineto
          -70 10 rlineto
          743 vlineto
          70 10 rlineto
          84 -161 -931 vlineto
          endchar
        </CharString>
        <CharString name="bracketright">
          25 callsubr
          148 91 -48 56 vstem
          239 25 callgsubr
          931 -161 -84 vlineto
          70 -10 rlineto
          -743 vlineto
          -70 -10 rlineto
          -84 vlineto
          endchar
        </CharString>
        <CharString name="breve">
          -168 582 66 83 -20 hstem
          46 226 vstem
          272 700 -99 callsubr
          endchar
        </CharString>
        <CharString name="bullet">
          -13 178 357 hstem
          78 357 vstem
          256 158 rmoveto
          99 80 80 99 99 -80 79 -99 -99 -79 -79 -99 -99 79 -80 99 hvcurveto
          endchar
        </CharString>
        <CharString name="c">
          -102 2 callgsubr
          hstem
          36 91 vstem
          334 92 rmoveto
          -100 callgsubr
          61 -19 78 4 71 19 rrcurveto
          endchar
        </CharString>
        <CharString name="cacute">
          -48 2 callgsubr
          9 1 callsubr
          44 109 vstem
          376 92 rmoveto
          -100 callgsubr
          61 -19 78 4 71 19 rrcurveto
          -128 532 rmoveto
          -73 callsubr
        </CharString>
        <CharString name="caron">
          -104 537 -66 callsubr
          21 300 hintmask 01100000
          336 731 -5 callsubr
          hintmask 10100000
          -56 -39 148 -141 rlineto
          endchar
        </CharString>
        <CharString name="ccaron">
          -47 2 callgsubr
          -39 -66 callsubr
          78 91 -83 300 hintmask 11010100
          376 92 rmoveto
          hintmask 11011000
          -100 callgsubr
          61 -19 78 4 71 19 rrcurveto
          1 678 -43 callsubr
          hintmask 10100100
          -97 callgsubr
        </CharString>
        <CharString name="ccedilla">
          -102 -4 callsubr
          36 51 421 69 hstem
          36 91 109 84 vstem
          87 -78 callsubr
          24 34 43 -2 46 7 44 11 rlinecurve
          -24 86 rlineto
          -100 callgsubr
          7 -2 7 -2 7 -1 -58 -75 rcurveline
          -77 callgsubr
        </CharString>
        <CharString name="ccircumflex">
          -46 2 callgsubr
          9 142 -18 callsubr
          -49 251 hintmask 11101000
          376 92 rmoveto
          hintmask 11110000
          -100 callgsubr
          61 -19 78 4 71 19 rrcurveto
          2 573 -105 callsubr
          endchar
        </CharString>
        <CharString name="cdotaccent">
          -48 2 callgsubr
          -42 104 -17 callgsubr
          39 100 vstem
          376 92 rmoveto
          -100 callgsubr
          61 -19 78 4 71 19 rrcurveto
          -135 532 -99 callgsubr
          endchar
        </CharString>
        <CharString name="cedilla">
          -225 -4 callsubr
          hstem
          216 87 vstem
          70 -78 callsubr
          32 44 rlineto
          -61 hlineto
          -61 -78 -77 callgsubr
        </CharString>
        <CharString name="cent">
          -48 -12 75 391 75 hstemhm
          78 148 -138 90 48 90 -2 39 hintmask 11011000
          316 25 callgsubr
          106 vlineto
          28 2 28 5 28 7 -24 86 rcurveline
          -17 -5 -21 -5 -22 -2 rrcurveto
          338 vlineto
          18 -3 19 -5 20 -8 25 76 rcurveline
          -28 12 -27 9 -27 5 rrcurveto
          119 -90 -116 vlineto
          hintmask 11100100
          -85 -14 -63 -65 -120 vvcurveto
          -128 vlineto
          -101 33 -51 79 -26 vhcurveto
          11 -3 12 -3 13 -2 rrcurveto
          -108 vlineto
          hintmask 11011000
          201 vmoveto
          -33 12 -24 24 46 vvcurveto
          145 vlineto
          48 21 34 36 16 vhcurveto
          endchar
        </CharString>
        <CharString name="chi">
          139 8 callsubr
          238 -20 hstem
          138 500 vstem
          588 27 callgsubr
          -126 259 rcurveline
          168 314 rlineto
          -103 hlineto
          -111 -217 -105 217 rlineto
          -99 hlineto
          155 -312 -26 callsubr
          endchar
        </CharString>
        <CharString name="circumflex">
          -104 588 13 callgsubr
          54 251 vstem
          336 629 -105 callsubr
          endchar
        </CharString>
        <CharString name="colon">
          -357 0 111 295 111 hstemhm
          15 72 -69 93 hintmask 11100000
          65 325 rmoveto
          hintmask 11010000
          25 21 21 25 25 -21 22 -25 -25 -22 -22 -25 -25 22 -21 25 hvcurveto
          -1 -215 rmoveto
          27 21 22 26 26 -21 22 -27 -26 -21 -22 -26 -26 21 -22 26 hvcurveto
          endchar
        </CharString>
        <CharString name="comma">
          -314 0 111 hstem
          36 93 vstem
          63 -84 -106 callgsubr
          endchar
        </CharString>
        <CharString name="copyright">
          315 -17 55 90 55 347 55 91 55 hstem
          24 68 99 68 449 68 vstem
          401 -127 -81 callsubr
          106 213 rmoveto
          -39 -3 -48 -28 -53 hhcurveto
          -83 -39 65 75 70 33 67 88 53 44 -29 -33 8 hvcurveto
          91 hlineto
          94 -16 -84 61 -95 hhcurveto
          -137 -75 -110 -121 -131 79 -100 135 92 81 62 97 21 hvcurveto
          endchar
        </CharString>
        <CharString name="currency">
          6 101 75 348 75 hstem
          18 85 330 85 vstem
          391 134 rmoveto
          59 62 -34 33 rlineto
          15 31 12 22 41 vvcurveto
          40 -11 22 -15 30 vhcurveto
          36 32 -63 63 -36 -36 rlineto
          15 -18 -29 10 -40 hhcurveto
          -41 -28 -11 -14 -21 hvcurveto
          -32 35 -66 -62 37 -36 rlineto
          -13 -22 -11 -27 -39 vvcurveto
          -40 11 -34 15 -21 vhcurveto
          -34 -33 60 -62 35 39 rlineto
          -16 24 26 -8 38 hhcurveto
          40 24 10 14 23 hvcurveto
          3 151 rmoveto
          -49 -41 -40 -49 -51 -41 40 49 50 41 41 51 49 41 -41 -50 vhcurveto
          endchar
        </CharString>
        <CharString name="d">
          -1 -7 callsubr
          0 90 hintmask 10111000
          17 callsubr
          hintmask 01110100
          -27 callsubr
          hintmask 10111000
          -50 -23 -35 -45 -76 vvcurveto
          279 -266 -49 callgsubr
          endchar
        </CharString>
        <CharString name="dcaron">
          151 -11 50 -39 63 396 50 112 111 -18 -20 hstemhm
          78 279 0 90 58 37 hintmask 10101101
          17 callsubr
          hintmask 01101011
          -27 callsubr
          hintmask 10101101
          -50 -23 -35 -45 -76 vvcurveto
          279 -266 -49 callgsubr
          175 140 -58 callgsubr
        </CharString>
        <CharString name="dcroat">
          61 -7 callsubr
          -82 234 -152 90 hintmask 10110100
          509 545 rmoveto
          88 vlineto
          hintmask 10110010
          -62 67 -90 -67 hlineto
          hintmask 10110100
          -82 -88 hlineto
          hintmask 10111000
          82 -55 hlineto
          -40 21 -88 10 -66 -31 rrcurveto
          -50 -23 -35 -45 -76 vvcurveto
          -189 vlineto
          -72 33 -44 45 -23 vhcurveto
          hintmask 01110010
          89 -45 77 16 125 11 rrcurveto
          545 vlineto
          hintmask 10110100
          hintmask 10111000
          -90 -465 -49 callgsubr
          endchar
        </CharString>
        <CharString name="degree">
          -82 421 210 -132 210 hstemhm
          78 210 -132 210 hintmask 10010000
          222 421 rmoveto
          80 64 64 80 hvcurveto
          hintmask 01100000
          80 -64 64 -80 -80 -64 -64 -80 vhcurveto
          hintmask 10100000
          -80 64 -64 80 vhcurveto
          66 144 rmoveto
          hintmask 01010000
          -33 -25 -33 -41 -41 -25 33 33 vhcurveto
          hintmask 10100000
          33 25 33 41 41 25 -33 -33 vhcurveto
          endchar
        </CharString>
        <CharString name="delta">
          -12 75 754 55 hstem
          127 341 -229 102 118 90 vstem
          451 288 rmoveto
          119 -76 50 -96 67 vhcurveto
          42 -61 30 46 36 hhcurveto
          39 hlineto
          21 93 rlineto
          -51 hlineto
          -156 -24 -146 -67 70 hvcurveto
          -56 -17 -49 -58 -107 vvcurveto
          -126 vlineto
          -116 57 -78 131 132 53 74 120 vhcurveto
          -90 -7 rmoveto
          -79 -50 -21 -45 -49 -49 30 70 vhcurveto
          118 vlineto
          64 10 61 83 7 vhcurveto
          93 -49 7 -75 -31 vvcurveto
          endchar
        </CharString>
        <CharString name="dieresis">
          -263 664 81 1 -20 hstemhm
          0 81 59 82 hintmask 10110000
          81 704 rmoveto
          23 -18 18 -23 -22 -18 -18 -23 -22 18 -18 22 23 18 18 22 vhcurveto
          100 -40 rmoveto
          23 18 18 23 hvcurveto
          hintmask 01110000
          -93 callsubr
          vhcurveto
          hintmask 10110000
          -57 callsubr
          vhcurveto
          endchar
        </CharString>
        <CharString name="dieresistonos">
          -148 592 104 35 -9 callgsubr
          50 90 20 109 -31 90 hintmask 10101000
          111 664 rmoveto
          -16 callsubr
          156 hmoveto
          -16 callsubr
          hintmask 01010000
          -48 67 rmoveto
          -73 callsubr
        </CharString>
        <CharString name="divide">
          -50 4 -21 236 68 236 -20 hstem
          171 128 vstem
          398 346 rmoveto
          77 -320 -77 vlineto
          163 16 callgsubr
          25 21 22 25 29 callsubr
          -25 21 -22 26 hvcurveto
          -245 vmoveto
          25 21 21 26 29 callsubr
          -26 21 -21 26 hvcurveto
          endchar
        </CharString>
        <CharString name="dollar">
          55 -17 80 115 155 397 -20 hstemhm
          34 97 -80 98 -97 58 115 91 -73 56 17 193 -115 29 -17 17 26 60 hintmask 1110010110000000
          316 25 callgsubr
          106 vlineto
          138 15 55 85 101 vvcurveto
          127 -99 53 -94 40 vhcurveto
          202 vlineto
          hintmask 1110010101010000
          26 -4 26 -7 26 -10 rrcurveto
          12 36 17 49 1 vvcurveto
          hintmask 1110011000110000
          -32 15 -30 10 -45 3 rrcurveto
          109 -91 -111 vlineto
          hintmask 1110100100110000
          -119 -18 -55 -77 -74 vvcurveto
          hintmask 1110011000110000
          -110 86 -40 88 -35 vhcurveto
          -267 vlineto
          hintmask 1111000100110000
          -56 13 -34 43 -4 48 -97 -11 rcurveline
          hintmask 1110011000110000
          2 -80 63 -89 126 -16 rrcurveto
          -107 vlineto
          91 424 rmoveto
          52 -27 41 -34 -64 vvcurveto
          -50 -36 -38 -57 -13 vhcurveto
          -91 369 rmoveto
          hintmask 1110100100110000
          -43 19 -32 21 -1 37 rrcurveto
          hintmask 1110011000110000
          -2 40 27 30 51 12 rrcurveto
          endchar
        </CharString>
        <CharString name="dotaccent">
          -385 592 104 hstem
          -6 100 vstem
          51 643 -99 callgsubr
          endchar
        </CharString>
        <CharString name="dotlessi">
          -320 21 -78 callgsubr
          113 104 hstem
          36 91 -73 56 vstem
          127 hmoveto
          -67 callgsubr
        </CharString>
        <CharString name="dotlessj">
          -205 -209 -4 callgsubr
          79 79 -6 91 hintmask 11101000
          152 -46 callgsubr
          endchar
        </CharString>
        <CharString name="e">
          -51 -88 callgsubr
          endchar
        </CharString>
        <CharString name="eacute">
          -10 -12 -74 callgsubr
          28 2 callsubr
          -19 callsubr
          -194 109 hintmask 11010010
          15 callgsubr
          hintmask 11010100
          -92 callgsubr
          hintmask 10110010
          -41 callsubr
          vhcurveto
          hintmask 10111000
          -49 callsubr
          hvcurveto
          -95 callgsubr
          hintmask 10110100
          -55 callgsubr
          hintmask 11010010
          -46 callsubr
          -43 195 rmoveto
          -73 callsubr
        </CharString>
        <CharString name="ecaron">
          -10 -12 -74 callgsubr
          -20 -66 callsubr
          78 268 -254 300 -222 268 hintmask 11001010
          15 callgsubr
          hintmask 11001001
          -92 callgsubr
          hintmask 10101010
          -41 callsubr
          vhcurveto
          hintmask 10101100
          -49 callsubr
          hvcurveto
          -95 callgsubr
          hintmask 10101001
          -55 callgsubr
          hintmask 11001010
          -29 callgsubr
          hintmask 11001100
          -30 callsubr
          61 341 -43 callsubr
          hintmask 11010010
          -97 callgsubr
        </CharString>
        <CharString name="ecircumflex">
          -10 -12 -74 callgsubr
          27 142 hstemhm
          78 268 -210 251 -217 268 hintmask 11010100
          379 -84 callgsubr
          72 235 -105 callsubr
          endchar
        </CharString>
        <CharString name="edieresis">
          52 -88 callgsubr
          -117 236 -107 callsubr
          endchar
        </CharString>
        <CharString name="edotaccent">
          -10 -12 -74 callgsubr
          -23 104 hstemhm
          78 -19 callsubr
          -229 100 hintmask 11010010
          15 callgsubr
          hintmask 11010100
          -92 callgsubr
          hintmask 10100010
          -41 callsubr
          vhcurveto
          hintmask 11011000
          -49 callsubr
          hvcurveto
          -95 callgsubr
          hintmask 10100100
          -55 callgsubr
          hintmask 11010010
          -46 callsubr
          -80 195 -99 callgsubr
          endchar
        </CharString>
        <CharString name="egrave">
          -10 -12 -74 callgsubr
          28 2 callsubr
          -19 callsubr
          -263 119 96 109 hintmask 11010011
          15 callgsubr
          hintmask 11010100
          -92 callgsubr
          hintmask 10110011
          -41 callsubr
          vhcurveto
          hintmask 10111001
          -49 callsubr
          hvcurveto
          -95 callgsubr
          hintmask 10110100
          -55 callgsubr
          hintmask 11010011
          -29 callgsubr
          hintmask 11011001
          -30 callsubr
          -56 197 -100 callsubr
          endchar
        </CharString>
        <CharString name="eight">
          -26 -12 75 261 125 -47 -21 253 75 hstemhm
          17 335 -296 52 119 180 -176 212 hintmask 10111000
          352 201 rmoveto
          -68 -54 -54 -68 vhcurveto
          hintmask 10110110
          -68 -54 54 68 hvcurveto
          hintmask 11011000
          67 52 55 66 1 vhcurveto
          76 -1 50 -55 -67 vvcurveto
          -22 187 rmoveto
          hintmask 10110110
          47 31 30 53 61 vvcurveto
          hintmask 10110101
          98 -78 78 -98 -97 -78 -78 -98 -60 29 -53 46 -31 vhcurveto
          hintmask 10111000
          -68 -35 -46 -71 -82 vvcurveto
          -118 95 -95 118 vhcurveto
          hintmask 10110101
          118 95 95 118 81 -46 70 -67 36 hvcurveto
          hintmask 11010110
          -103 61 rmoveto
          -46 -37 38 46 hvcurveto
          hintmask 10110101
          48 39 39 48 47 38 -39 -48 vhcurveto
          hintmask 11010110
          -47 -38 -37 -51 vhcurveto
          endchar
        </CharString>
        <CharString name="ellipsis">
          10 0 111 hstemhm
          4 89 -79 66 104 89 -79 66 104 89 -79 66 hintmask 10101010
          49 hmoveto
          hintmask 11001010
          -67 callsubr
          180 hmoveto
          hintmask 10110010
          -67 callsubr
          180 hmoveto
          hintmask 10101100
          -67 callsubr
          endchar
        </CharString>
        <CharString name="emacron">
          52 -12 -74 callgsubr
          28 79 hstemhm
          35 268 -252 333 -257 268 hintmask 11010100
          336 -84 callgsubr
          22 195 6 callgsubr
        </CharString>
        <CharString name="eng">
          15 -209 71 159 -21 454 75 -72 52 -37 55 -10 -20 157 67 hstem
          64 83 86 101 9 90 -26 85 vstem
          343 -45 rmoveto
          -90 -81 -3 0 vhcurveto
          0 18 -70 -1 vvcurveto
          73 79 52 83 1 hvcurveto
          420 vlineto
          76 -35 46 -50 23 vhcurveto
          -67 31 -95 -14 -33 -22 -6 15 rcurveline
          -83 -501 90 400 hlineto
          57 29 132 22 -119 vvcurveto
          endchar
        </CharString>
        <CharString name="eogonek">
          -51 27 callsubr
          151 -74 callgsubr
          hstemhm
          35 268 -185 68 -59 268 hintmask 11100100
          262 -11 callgsubr
          27 24 34 65 55 38 7 36 14 31 19 -34 77 rcurveline
          hintmask 11100010
          -92 callgsubr
          hintmask 11010100
          -41 callsubr
          vhcurveto
          hintmask 11011000
          -49 callsubr
          hvcurveto
          -205 vlineto
          -99 63 -45 91 -2 vhcurveto
          -69 -49 -7 -43 -18 -86 callgsubr
          -4 441 rmoveto
          hintmask 11010010
          -55 callgsubr
          hintmask 11100100
          -29 callgsubr
          hintmask 11101000
          -30 callsubr
          endchar
        </CharString>
        <CharString name="epsilon">
          -25 -12 75 273 68 230 75 hstemhm
          68 85 -73 101 247 90 hintmask 11101100
          396 110 rmoveto
          0 -52 -29 -72 vhcurveto
          hintmask 11110100
          -80 callsubr
        </CharString>
        <CharString name="epsilontonos">
          -25 -12 75 273 68 134 143 -47 75 hstem
          58 85 -75 85 -80 85 -78 101 48 109 80 90 -80 90 -70 90 -80 90 vstem
          288 538 rmoveto
          -107 callgsubr
          171 -428 rmoveto
          0 -52 -29 -72 vhcurveto
          -80 callsubr
        </CharString>
        <CharString name="equal">
          -132 134 80 56 80 hstem
          17 320 vstem
          337 357 -2 callgsubr
          320 -136 -2 callgsubr
          endchar
        </CharString>
        <CharString name="eta">
          -1 21 -21 454 75 -12 -20 hstem
          247 101 73 85 vstem
          447 -210 rmoveto
          556 vlineto
          76 -35 46 -50 23 vhcurveto
          -61 29 -95 -9 -39 -25 -4 15 rcurveline
          -85 -501 90 400 hlineto
          85 48 104 -13 -92 vvcurveto
          -529 vlineto
          endchar
        </CharString>
        <CharString name="etatonos">
          -1 21 -21 454 75 9 -9 callgsubr
          87 85 72 109 -100 109 68 85 hintmask 11111010
          312 538 rmoveto
          -107 callgsubr
          198 -748 rmoveto
          556 vlineto
          hintmask 11110110
          76 -35 46 -50 23 vhcurveto
          -61 29 -95 -9 -39 -25 -4 15 rcurveline
          -85 -501 90 400 hlineto
          85 48 104 -13 -92 vvcurveto
          -529 vlineto
          endchar
        </CharString>
        <CharString name="exclam">
          -228 0 127 hstemhm
          78 99 -83 66 hintmask 10100000
          160 120 rmoveto
          hintmask 11000000
          17 533 rlineto
          24 -7 33 -44 -40 -8 -33 -25 vhcurveto
          hintmask 10100000
          16 -532 rlineto
          78 -76 rmoveto
          25 -20 20 -25 31 callsubr
          25 20 20 24 vhcurveto
          endchar
        </CharString>
        <CharString name="exclamdown">
          -228 -177 -21 198 127 279 111 hstemhm
          93 67 -57 47 hintmask 11101000
          78 58 rmoveto
          -25 8 -33 40 44 7 33 24 vhcurveto
          -17 533 rlineto
          hintmask 11110000
          -66 hlineto
          33 31 rmoveto
          25 20 20 25 24 -20 20 -25 -24 -20 -20 -24 -25 20 -20 24 hvcurveto
          endchar
        </CharString>
        <CharString name="f">
          -171 21 -21 415 86 124 82 hstem
          78 92 vstem
          170 hmoveto
          -36 callgsubr
          76 53 9 39 -9 vhcurveto
          15 82 rlineto
          -83 15 -116 -21 -152 vvcurveto
          -549 vlineto
          endchar
        </CharString>
        <CharString name="f_f">
          79 21 -21 448 53 157 49 hstem
          100 56 179 56 vstem
          405 hmoveto
          415 72 vlineto
          24 86 rlineto
          -96 38 hlineto
          74 55 11 42 -19 vhcurveto
          25 83 -54 20 -57 -2 -41 -28 rlinecurve
          -190 68 -107 -88 -136 vvcurveto
          -522 92 415 73 vlineto
          24 86 rlineto
          -17 callsubr
          vlineto
          endchar
        </CharString>
        <CharString name="f_f_l">
          180 21 -21 hstem
          563 56 vstem
          628 hmoveto
          679 vlineto
          -62 22 -117 27 -74 -50 -169 63 -110 -66 -15 -117 rrcurveto
          -2 -19 -1 -21 -21 vvcurveto
          -497 92 415 73 -6 callgsubr
          -17 callsubr
          93 415 72 -6 callgsubr
          -96 41 hlineto
          67 76 21 54 -26 vhcurveto
          -604 vlineto
          endchar
        </CharString>
        <CharString name="f_i">
          -52 21 -21 415 85 17 -20 113 104 -18 callsubr
          139 91 hintmask 10111100
          396 hmoveto
          501 -90 -501 vlineto
          -136 hmoveto
          hintmask 11011100
          -36 callgsubr
          76 90 17 46 -40 vhcurveto
          69 63 rlineto
          -141 98 -156 -74 -157 vvcurveto
          -532 vlineto
          endchar
        </CharString>
        <CharString name="f_l">
          -52 21 -21 442 75 130 75 -8 -20 hstem
          141 85 181 85 vstem
          396 hmoveto
          676 vlineto
          -40 callgsubr
          -603 vlineto
          endchar
        </CharString>
        <CharString name="f_t">
          52 8 -21 34 -21 415 86 hstemhm
          78 92 134 92 hintmask 01111000
          467 59 rmoveto
          -42 6 -29 18 49 vvcurveto
          283 80 vlineto
          24 86 rlineto
          -104 175 hlineto
          -40 callgsubr
          -471 vlineto
          hintmask 10111000
          -78 32 -58 104 -9 vhcurveto
          endchar
        </CharString>
        <CharString name="five">
          -62 -12 75 329 75 155 75 hstem
          17 60 239 -24 callsubr
          -95 94 -118 hvcurveto
          -45 hlineto
          20 196 rlineto
          182 91 -266 hlineto
          -40 -375 rlineto
          122 hlineto
          87 62 -49 -75 -64 -41 -59 -81 -53 -34 25 42 -30 hvcurveto
          endchar
        </CharString>
        <CharString name="four">
          24 21 -21 166 75 hstem
          332 91 vstem
          423 hmoveto
          325 51 vlineto
          19 88 rlineto
          -70 287 -91 -287 -166 hlineto
          137 287 rlineto
          -93 hlineto
          -193 -375 rlineto
          315 -325 hlineto
          endchar
        </CharString>
        <CharString name="fraction">
          47 725 -20 hstem
          20 499 vstem
          176 25 callgsubr
          319 931 rlineto
          -93 hlineto
          -324 -931 rlineto
          endchar
        </CharString>
        <CharString name="g">
          -37 9 callsubr
          hstemhm
          37 286 0 91 hintmask 10101000
          274 -29 callsubr
          hintmask 11010000
          -96 callsubr
          hintmask 10110000
          -62 callsubr
          hintmask 11010000
          -11 callsubr
          endchar
        </CharString>
        <CharString name="gamma">
          -6 -7 callgsubr
          vstem
          267 -167 rmoveto
          21 callgsubr
          122 404 rcurveline
          29 88 38 9 32 10 -58 54 rcurveline
          0 callgsubr
          -84 -277 rcurveline
          -20 13 -12 46 -12 45 -72 278 rcurveline
          -97 hlineto
          108 -372 1 callgsubr
          rlinecurve
          -23 -72 -17 -49 5 -57 33 -32 rlinecurve
          endchar
        </CharString>
        <CharString name="gamma_gamma">
          366 -7 callgsubr
          201 472 -279 85 vstem
          120 129 rmoveto
          1 callgsubr
          -8 -24 -7 -24 -8 -24 -17 -49 5 -57 33 -32 25 10 26 11 25 10 21 callgsubr
          41 134 40 136 41 134 7 22 7 14 8 11 rrcurveto
          26 -92 27 -91 27 -92 1 callgsubr
          -22 callsubr
          21 callgsubr
          41 134 41 135 40 135 rrcurveto
          29 88 38 9 32 10 -20 18 -19 18 -19 18 0 callgsubr
          -3 callsubr
          -15 73 -14 56 -18 67 -16 67 -17 66 -60 55 rcurveline
          0 callgsubr
          -3 callsubr
          -14 70 -14 55 -21 81 -21 80 -20 81 rrcurveto
          -97 hlineto
          endchar
        </CharString>
        <CharString name="gamma_kappa">
          463 0 86 -65 -78 callgsubr
          217 -20 hstem
          80 472 -279 85 256 85 vstem
          611 hmoveto
          196 vlineto
          12 12 13 11 12 12 29 -40 30 -41 29 -40 42 -57 38 -53 74 -1 7 26 7 27 7 27 -24 1 -24 11 -40 54 -36 51 -37 51 -36 52 62 67 61 68 61 67 rrcurveto
          -114 hlineto
          -57 -63 -59 -63 -57 -63 rrcurveto
          187 vlineto
          -114 19 0 callgsubr
          rlinecurve
          -3 callsubr
          -14 70 -14 55 -20 81 -22 80 -20 81 rrcurveto
          -97 hlineto
          108 -372 1 callgsubr
          rlinecurve
          -22 callsubr
          -14 26 -12 15 27 79 41 134 41 136 40 134 19 58 22 24 23 12 rrcurveto
          -451 vlineto
          endchar
        </CharString>
        <CharString name="gbreve">
          -20 callgsubr
          58 66 83 -20 hstemhm
          78 286 -195 226 -31 91 hintmask 10111010
          395 650 -99 callsubr
          -80 -855 rmoveto
          hintmask 10111001
          -81 callgsubr
          hintmask 01111100
          -96 callsubr
          hintmask 10111010
          -62 callsubr
          62 35 39 60 vhcurveto
          hintmask 01111001
          65 35 -36 -63 hvcurveto
          endchar
        </CharString>
        <CharString name="gcircumflex">
          -20 callgsubr
          64 142 hstemhm
          78 286 -209 251 -42 91 hintmask 10110100
          437 579 -105 callsubr
          -65 -750 rmoveto
          hintmask 10110010
          -81 callgsubr
          hintmask 01111000
          -96 callsubr
          hintmask 10110100
          -62 callsubr
          62 35 39 60 vhcurveto
          hintmask 01110010
          65 35 -36 -63 hvcurveto
          endchar
        </CharString>
        <CharString name="gcommaaccent">
          7 9 callsubr
          9 111 hstemhm
          78 286 -143 93 50 91 hintmask 10110110
          315 -29 callsubr
          hintmask 11011000
          -96 callsubr
          hintmask 10111000
          -62 callsubr
          hintmask 11011000
          -11 callsubr
          -87 311 -31 callgsubr
          rlineto
          hintmask 11010110
          -43 -38 -24 -35 1 -46 rrcurveto
          -23 callgsubr
          endchar
        </CharString>
        <CharString name="gdotaccent">
          -20 callgsubr
          12 104 hstemhm
          78 286 -141 100 41 91 hintmask 10110110
          280 537 -99 callgsubr
          35 -747 -26 callgsubr
          hintmask 01111000
          -96 callsubr
          hintmask 10111010
          -62 callsubr
          -11 callsubr
          endchar
        </CharString>
        <CharString name="germandbls">
          60 78 91 65 55 vstem
          169 hmoveto
          518 vlineto
          66 23 30 45 vhcurveto
          68 1 -107 -72 hhcurveto
          -65 -118 117 -64 79 -82 43 -44 20 -46 -29 -47 -24 -40 -79 -3 -59 56 -42 -82 rcurveline
          77 -64 164 -12 54 110 41 86 -34 76 -49 52 -73 78 -96 47 40 67 23 -1 rcurveline
          62 69 -25 163 -154 hhcurveto
          -98 -56 -66 -98 hvcurveto
          -537 vlineto
          endchar
        </CharString>
        <CharString name="grave">
          -263 588 -18 callgsubr
          62 119 96 109 vstem
          177 590 -100 callsubr
          endchar
        </CharString>
        <CharString name="greater">
          -112 13 -21 hstemhm
          -41 313 -256 340 hintmask 11000000
          78 80 rmoveto
          hintmask 10100000
          278 278 rlineto
          1 vlineto
          -278 278 -62 -59 222 -220 -220 -222 rlineto
          endchar
        </CharString>
        <CharString name="guillemotleft">
          26 299 -21 hstem
          50 152 44 152 vstem
          288 136 -64 callsubr
          279 56 -64 callsubr
          endchar
        </CharString>
        <CharString name="guillemotright">
          32 299 -21 hstem
          7 152 44 152 vstem
          281 80 -37 callgsubr
          131 -128 -130 -131 rlineto
          -161 -56 -37 callgsubr
          131 -128 -130 -131 rlineto
          endchar
        </CharString>
        <CharString name="guilsinglleft">
          -194 299 -21 hstem
          50 152 vstem
          288 136 -64 callsubr
          endchar
        </CharString>
        <CharString name="guilsinglright">
          -188 299 -21 hstemhm
          16 152 -80 152 hintmask 11000000
          61 80 -37 callgsubr
          130 -128 rlineto
          hintmask 10100000
          -129 -131 rlineto
          endchar
        </CharString>
        <CharString name="h">
          8 29 callgsubr
          hstem
          64 91 187 91 vstem
          433 hmoveto
          346 vlineto
          76 -35 46 -50 23 vhcurveto
          -42 callsubr
        </CharString>
        <CharString name="hbar">
          60 29 callgsubr
          hstemhm
          78 234 -173 56 -56 91 187 91 -55 55 hintmask 11100110
          508 -71 callsubr
          -90 -10 -39 -22 rrcurveto
          56 vlineto
          hintmask 11110001
          82 88 hlineto
          hintmask 11100101
          -82 67 -91 -67 hlineto
          hintmask 11110001
          -61 -88 hlineto
          hintmask 11101001
          61 -545 hlineto
          hintmask 11100110
          91 402 hlineto
          51 30 136 24 -136 vvcurveto
          -320 vlineto
          endchar
        </CharString>
        <CharString name="hcircumflex">
          107 367 -21 114 49 205 -20 36 142 hstemhm
          72 251 -69 0 187 91 hintmask 11111010
          354 -21 callgsubr
          235 -732 rmoveto
          346 vlineto
          76 -35 46 -50 23 vhcurveto
          hintmask 11110110
          -42 callsubr
        </CharString>
        <CharString name="hungarumlaut">
          -219 568 -35 callgsubr
          hstemhm
          15 239 hintmask 01100000
          196 569 rmoveto
          -107 callgsubr
          hintmask 10100000
          -68 -1 rmoveto
          -73 callsubr
        </CharString>
        <CharString name="hyphen">
          -75 238 80 hstem
          45 320 vstem
          365 325 -2 callgsubr
          endchar
        </CharString>
        <CharString name="i">
          -227 522 -21 109 104 hstem
          81 91 vstem
          129 610 -99 callgsubr
          43 -610 rmoveto
          -67 callgsubr
        </CharString>
        <CharString name="iacute">
          -9 callsubr
          -84 56 hintmask 11100100
          159 538 rmoveto
          -107 callgsubr
          hintmask 11011000
          73 -538 rmoveto
          -67 callgsubr
        </CharString>
        <CharString name="icircumflex">
          -257 21 -78 callgsubr
          113 104 hstemhm
          65 91 -84 56 hintmask 11101000
          254 578 -105 callsubr
          hintmask 11110000
          -41 -539 rmoveto
          -67 callgsubr
        </CharString>
        <CharString name="idieresis">
          -148 21 -78 callgsubr
          113 104 hstemhm
          142 91 -84 56 hintmask 11101000
          159 579 -107 callsubr
          hintmask 11110000
          -26 -539 rmoveto
          -67 callgsubr
        </CharString>
        <CharString name="igrave">
          -221 21 -78 callgsubr
          113 104 hstemhm
          136 91 -84 56 110 109 hintmask 11101100
          209 540 -100 callsubr
          hintmask 11110100
          81 -540 rmoveto
          -67 callgsubr
        </CharString>
        <CharString name="imacron">
          -153 21 -78 callgsubr
          41 79 -7 104 hstemhm
          144 91 -63 56 hintmask 11100100
          295 538 rmoveto
          79 -217 -79 vlineto
          hintmask 11011000
          157 -538 rmoveto
          -67 callgsubr
        </CharString>
        <CharString name="iogonek">
          -239 27 callsubr
          184 -21 610 104 hstemhm
          3 68 -3 91 hintmask 11110000
          147 -115 -83 callgsubr
          hintmask 11101000
          2 501 -91 -501 24 hlineto
          -86 -54 -8 -49 -19 -86 callgsubr
          -76 773 -99 callgsubr
          endchar
        </CharString>
        <CharString name="iota">
          -291 21 -78 callgsubr
          113 104 hstem
          66 91 -63 85 vstem
          157 hmoveto
          -67 callgsubr
        </CharString>
        <CharString name="iotadieresis">
          -207 21 -78 callgsubr
          113 104 hstemhm
          85 91 -61 85 hintmask 11110000
          176 hmoveto
          501 -91 -501 vlineto
          15 579 rmoveto
          23 -18 18 -23 -22 -18 -18 -23 -22 18 -18 22 23 18 18 22 vhcurveto
          hintmask 11101000
          100 -40 rmoveto
          23 18 18 23 -93 callsubr
          -57 callsubr
          hvcurveto
          endchar
        </CharString>
        <CharString name="iotadieresistonos">
          -92 21 -78 callgsubr
          79 143 -109 104 hstemhm
          170 85 hintmask 11101000
          260 hmoveto
          501 -91 -501 vlineto
          73 576 rmoveto
          56 73 rlineto
          hintmask 11011000
          21 27 -9 28 -24 30 callsubr
          hintmask 11101000
          -72 callgsubr
          rlineto
          178 6 rmoveto
          23 -19 18 -22 -23 -18 -18 -23 -22 18 -18 23 22 19 18 22 vhcurveto
          -198 hmoveto
          22 -18 19 -23 -22 -18 -19 -22 -22 18 -18 22 23 18 18 22 vhcurveto
          endchar
        </CharString>
        <CharString name="iotatonos">
          -9 callsubr
          -68 85 hintmask 11100100
          159 538 rmoveto
          -107 callgsubr
          hintmask 11011000
          73 -538 rmoveto
          -67 callgsubr
        </CharString>
        <CharString name="itilde">
          -25 21 -78 callgsubr
          48 36 -15 56 -12 104 hstemhm
          78 345 -230 91 -76 56 hintmask 11010001
          387 622 rmoveto
          hintmask 11101100
          -102 -112 -82 208 -125 -143 34 -56 rcurveline
          hintmask 11010100
          111 117 78 -215 122 145 rrcurveto
          hintmask 11101010
          -139 -566 rmoveto
          -67 callgsubr
        </CharString>
        <CharString name="j">
          -264 -209 -4 callgsubr
          -2 79 -6 91 hintmask 11101000
          71 -46 callgsubr
          47 195 rmoveto
          27 22 24 27 27 -22 22 -27 -27 -24 -22 -27 -27 24 -24 27 hvcurveto
          endchar
        </CharString>
        <CharString name="jcircumflex">
          -80 -209 43 -43 -4 callgsubr
          117 79 -57 51 4 56 hintmask 01110110
          368 579 -105 callsubr
          -121 -582 rmoveto
          hintmask 01111000
          -91 -73 -6 0 vhcurveto
          hintmask 10110110
          0 22 -69 -1 vvcurveto
          73 66 58 76 3 hvcurveto
          576 -163 vlineto
          23 -78 49 -8 rlineto
          endchar
        </CharString>
        <CharString name="k">
          -25 21 -21 520 -20 214 -20 hstem
          65 91 -60 callsubr
          endchar
        </CharString>
        <CharString name="kappa">
          -79 callgsubr
        </CharString>
        <CharString name="kcommaaccent">
          -25 -1 callgsubr
          520 -20 214 -20 hstem
          65 91 40 37 -60 callsubr
          -125 -207 -106 callgsubr
          endchar
        </CharString>
        <CharString name="kgreenlandic">
          -79 callgsubr
        </CharString>
        <CharString name="l">
          -236 -50 callsubr
          -17 callgsubr
          vstem
          169 -15 callgsubr
          endchar
        </CharString>
        <CharString name="lacute">
          -177 -50 callsubr
          40 1 callsubr
          -68 109 vstem
          169 -15 callgsubr
          82 734 rmoveto
          -73 callsubr
        </CharString>
        <CharString name="lambda">
          107 -207 75 -45 -21 715 -20 hstem
          79 484 vstem
          555 37 rmoveto
          -32 10 -38 9 -29 88 -136 449 rcurveline
          18 callsubr
          -20 -71 rcurveline
          48 -3 18 -17 17 -49 23 -71 rcurveline
          4 callsubr
          72 278 12 45 12 46 20 13 rlinecurve
          84 -277 21 -71 36 -36 65 -15 rlinecurve
          endchar
        </CharString>
        <CharString name="lambda_lambda">
          484 -1 callsubr
          hstemhm
          79 484 -11 484 hintmask 11010000
          640 334 rmoveto
          5 callgsubr
          -71 36 -36 65 -15 19 18 20 18 19 18 -32 10 -38 9 -29 88 -45 149 -46 150 -45 150 18 callsubr
          rrcurveto
          -6 -24 -7 -23 -7 -24 70 -4 3 -37 33 -99 -20 -19 -23 -8 -30 -90 -27 -93 -27 -92 -28 -94 rrcurveto
          0 -17 35 -5 14 vhcurveto
          -139 451 18 callsubr
          rlinecurve
          -6 -24 -8 -23 -6 -24 69 -4 4 -37 33 -99 rrcurveto
          hintmask 11100000
          4 callsubr
          27 110 29 126 32 98 5 callgsubr
          -72 37 -35 63 -16 21 18 23 20 21 23 rrcurveto
          endchar
        </CharString>
        <CharString name="lcaron">
          -37 21 -21 681 10 callsubr
          -176 91 hintmask 10110100
          268 -15 callgsubr
          191 19 callsubr
          hintmask 11001000
          -97 callgsubr
        </CharString>
        <CharString name="lcommaaccent">
          -201 -1 callgsubr
          714 -20 hstemhm
          109 37 -36 91 hintmask 11101000
          201 -15 callgsubr
          26 -12 callsubr
          hintmask 11110000
          -85 callgsubr
        </CharString>
        <CharString name="less">
          -112 13 -21 hstem
          17 340 vstem
          355 136 rmoveto
          -220 222 222 220 -62 59 -278 -278 rlineto
          -1 vlineto
          278 -278 rlineto
          endchar
        </CharString>
        <CharString name="lslash">
          -47 21 -21 516 -20 218 -20 hstem
          182 85 -68 92 vstem
          291 hmoveto
          369 vlineto
          110 50 -32 71 -78 -36 rlineto
          246 -155 -86 vlineto
          63 -2 rlineto
          -199 vlineto
          -121 -55 31 -70 90 40 rlineto
          -328 vlineto
          endchar
        </CharString>
        <CharString name="m">
          254 21 -21 454 63 -63 75 hstem
          78 83 194 91 165 91 vstem
          702 22 callgsubr
          147 -135 55 -140 -65 vhcurveto
          -2 -1 -26 -13 -14 -8 -56 58 -94 1 -68 -35 -6 16 rcurveline
          -83 -501 91 398 hlineto
          85 48 101 -15 -115 vvcurveto
          -316 91 352 vlineto
          16 -4 20 -5 11 vhcurveto
          24 10 rlineto
          86 32 64 -13 -110 vvcurveto
          -318 vlineto
          endchar
        </CharString>
        <CharString name="macron">
          -149 619 79 hstem
          18 341 vstem
          299 619 rmoveto
          79 -221 -79 vlineto
          endchar
        </CharString>
        <CharString name="mu">
          -7 -180 -21 189 -64 callgsubr
          hstemhm
          212 102 66 85 hintmask 11011100
          444 -77 callsubr
        </CharString>
        <CharString name="multiply">
          -66 24 458 hstem
          80 301 vstem
          381 213 rmoveto
          -100 120 101 122 -61 50 -91 -111 -92 110 -60 -51 100 -120 -98 -120 59 -53 91 110 91 -109 rlineto
          endchar
        </CharString>
        <CharString name="n">
          15 12 callsubr
          hstem
          64 83 195 91 vstem
          433 -96 callgsubr
          endchar
        </CharString>
        <CharString name="nacute">
          -1 12 callsubr
          11 -13 callgsubr
          78 83 74 109 12 91 vstem
          447 -96 callgsubr
          -62 538 rmoveto
          -73 callsubr
        </CharString>
        <CharString name="ncaron">
          -1 12 callsubr
          11 -66 callsubr
          78 83 -55 300 -50 91 hintmask 11011010
          447 -96 callgsubr
          65 732 -43 callsubr
          hintmask 11100100
          -97 callgsubr
        </CharString>
        <CharString name="ncommaaccent">
          15 -1 callgsubr
          472 55 hstem
          64 83 53 37 105 91 vstem
          433 -96 callgsubr
          -115 -207 -106 callgsubr
          endchar
        </CharString>
        <CharString name="nine">
          -27 -12 75 178 75 318 75 hstemhm
          17 213 -67 67 122 90 hintmask 11110100
          198 hmoveto
          189 55 143 96 hvcurveto
          258 vlineto
          118 -94 95 -118 -118 -95 -95 -118 -118 95 -94 118 62 32 20 24 28 vhcurveto
          -72 vlineto
          -108 -61 -64 -89 vhcurveto
          hintmask 11101100
          -39 -85 hlineto
          67 376 rmoveto
          -67 -55 54 67 67 55 56 67 65 57 -53 -65 -75 -57 -51 -65 hvcurveto
          endchar
        </CharString>
        <CharString name="ntilde">
          -1 12 callsubr
          19 9 callgsubr
          78 83 -69 345 -81 91 hintmask 11011010
          447 -96 callgsubr
          45 649 rmoveto
          hintmask 11100100
          -103 callgsubr
        </CharString>
        <CharString name="nu">
          40 0 86 431 -20 hstemhm
          78 410 -206 42 hintmask 11010000
          331 -38 callsubr
        </CharString>
        <CharString name="numbersign">
          128 21 -21 175 86 116 92 hstemhm
          34 548 -505 88 76 88 -45 92 72 93 hintmask 11110000
          582 175 rmoveto
          86 -144 vlineto
          27 116 rlineto
          117 92 -95 hlineto
          hintmask 11101101
          54 231 rlineto
          -93 hlineto
          -54 -231 rlineto
          -119 hlineto
          54 231 rlineto
          -88 hlineto
          -53 -231 rlineto
          hintmask 11110000
          -154 -92 132 hlineto
          -28 -116 rlineto
          -104 -86 84 hlineto
          hintmask 11101011
          -41 -175 rlineto
          88 hlineto
          40 175 rlineto
          118 hlineto
          -39 -175 rlineto
          92 hlineto
          41 175 rlineto
          hintmask 11110000
          -73 86 rmoveto
          -118 hlineto
          27 116 rlineto
          119 hlineto
          endchar
        </CharString>
        <CharString name="o">
          -86 callsubr
          endchar
        </CharString>
        <CharString name="oacute">
          -53 callgsubr
          26 143 -104 callsubr
          -59 222 rmoveto
          -73 callsubr
        </CharString>
        <CharString name="ocircumflex">
          -53 callgsubr
          25 142 -104 callsubr
          53 262 -105 callsubr
          endchar
        </CharString>
        <CharString name="odieresis">
          -86 callsubr
          -121 263 -107 callsubr
          endchar
        </CharString>
        <CharString name="oe">
          293 -12 440 -357 441 -337 253 -166 248 hstemhm
          78 283 -192 481 -282 79 5 289 hintmask 00101011
          697 105 rmoveto
          -110 -54 -135 9 90 vvcurveto
          25 vlineto
          289 19 rlineto
          137 vlineto
          hintmask 00011011
          105 -67 74 -104 -72 -42 -16 -48 -45 vhcurveto
          hintmask 01001011
          38 -28 -46 28 -71 hhcurveto
          -91 callsubr
          65 46 27 30 24 vhcurveto
          hintmask 10001011
          37 -47 58 -14 70 2 57 1 61 17 47 29 rrcurveto
          -370 139 rmoveto
          hintmask 01001011
          -79 -52 -24 -43 vhcurveto
          hintmask 10000100
          -44 -53 24 79 hvcurveto
          142 vlineto
          91 51 20 46 vhcurveto
          hintmask 10001011
          45 50 -18 -93 hvcurveto
          hintmask 00010100
          289 -44 rmoveto
          hintmask 00011011
          -198 -10 rlineto
          55 vlineto
          hintmask 10001011
          74 41 37 67 vhcurveto
          hintmask 10000100
          41 49 -25 -75 hvcurveto
          endchar
        </CharString>
        <CharString name="ogonek">
          -263 -210 50 hstem
          76 68 vstem
          220 -112 -83 callgsubr
          -65 hlineto
          -86 -54 -8 -49 -19 -86 callgsubr
          endchar
        </CharString>
        <CharString name="ograve">
          -53 callgsubr
          26 2 callsubr
          283 -192 282 -62 109 hintmask 01101000
          451 316 rmoveto
          121 -69 75 -116 vhcurveto
          hintmask 10110100
          -87 callgsubr
          hintmask 01110100
          -90 -10 rmoveto
          -63 -39 -33 -56 vhcurveto
          hintmask 10101000
          -55 -42 31 65 hvcurveto
          142 vlineto
          -28 callsubr
          vhcurveto
          hintmask 10110100
          45 50 -17 -89 hvcurveto
          -72 224 -100 callsubr
          endchar
        </CharString>
        <CharString name="ohungarumlaut">
          -53 callgsubr
          31 143 -104 callsubr
          -11 227 rmoveto
          -107 callgsubr
          -68 hmoveto
          -73 callsubr
        </CharString>
        <CharString name="omacron">
          -53 callgsubr
          26 79 -104 callsubr
          11 222 6 callgsubr
        </CharString>
        <CharString name="omega">
          150 260 78 vstem
          507 189 -88 callsubr
        </CharString>
        <CharString name="omegatonos">
          162 538 -9 callgsubr
          272 78 -23 109 -108 109 hintmask 10010000
          hintmask 10100000
          386 538 rmoveto
          -107 callgsubr
          hintmask 01000000
          196 -349 -88 callsubr
        </CharString>
        <CharString name="omicron">
          -12 75 -73 432 -344 434 -58 75 hstemhm
          78 90 -90 283 -192 282 39 90 hintmask 10011011
          451 316 rmoveto
          hintmask 10101011
          121 -69 75 -116 -121 -67 -70 -126 vhcurveto
          -132 vlineto
          hintmask 01011011
          -102 57 -92 131 132 53 92 102 vhcurveto
          hintmask 10010101
          -90 -10 rmoveto
          hintmask 10101011
          -63 -39 -33 -56 -55 -42 31 65 vhcurveto
          142 vlineto
          hintmask 01010101
          -28 callsubr
          45 50 -17 -89 vhcurveto
          endchar
        </CharString>
        <CharString name="omicrontonos">
          -12 75 -73 88 344 90 -58 75 9 -9 callgsubr
          58 90 -70 91 79 109 4 90 19 90 hintmask 1001110111000000
          302 538 rmoveto
          -107 callgsubr
          212 -222 rmoveto
          hintmask 1010110111000000
          121 -69 75 -116 vhcurveto
          hintmask 1001101111000000
          -121 -67 -70 -126 hvcurveto
          -132 vlineto
          hintmask 0101110111000000
          -102 57 -92 131 132 53 92 102 vhcurveto
          -90 -10 rmoveto
          -63 -39 -33 -56 vhcurveto
          hintmask 1001101111000000
          -55 -42 31 65 hvcurveto
          142 vlineto
          hintmask 1010110111000000
          -28 callsubr
          45 50 -17 -89 vhcurveto
          endchar
        </CharString>
        <CharString name="one">
          -250 21 -21 508 68 hstem
          128 91 vstem
          219 24 callsubr
          -91 vlineto
          -48 -62 -63 -5 0 vvcurveto
          25 -81 rlineto
          0 57 6 29 19 vhcurveto
          -1 -577 rlineto
          endchar
        </CharString>
        <CharString name="ordfeminine">
          -101 380 50 229 50 hstem
          76 68 164 60 vstem
          347 555 rmoveto
          109 -26 50 -140 -5 vhcurveto
          -8 -55 rlineto
          91 7 8 -26 -31 vvcurveto
          -101 59 -93 -38 -106 vvcurveto
          -156 131 6 138 22 vhcurveto
          -75 61 rmoveto
          -62 -13 -62 7 67 vvcurveto
          81 79 -31 45 -25 vhcurveto
          endchar
        </CharString>
        <CharString name="oslash">
          13 -10 91 235 196 219 -20 hstemhm
          75 456 -452 91 192 90 hintmask 11110000
          173 -67 rmoveto
          28 66 rlineto
          -6 20 21 -3 25 hhcurveto
          hintmask 11101100
          132 53 92 102 hvcurveto
          132 vlineto
          61 -18 50 -33 34 vhcurveto
          55 127 rlineto
          -90 hlineto
          -37 -85 rlineto
          6 -19 -21 3 -22 hhcurveto
          -121 -67 -70 -126 hvcurveto
          -132 vlineto
          -55 16 -52 36 -36 vhcurveto
          -46 -108 rlineto
          277 241 rmoveto
          -63 -39 -33 -56 -11 -10 1 2 -9 vhcurveto
          120 278 rlineto
          3 -12 2 -14 -17 vvcurveto
          -188 -175 rmoveto
          -3 10 -1 11 12 vvcurveto
          142 vlineto
          -28 callsubr
          8 10 -1 -2 8 vhcurveto
          endchar
        </CharString>
        <CharString name="otilde">
          4 -53 callgsubr
          17 9 callgsubr
          78 283 -260 345 -277 282 hintmask 01010010
          451 316 rmoveto
          121 -69 75 -116 vhcurveto
          hintmask 10011000
          -91 callsubr
          vhcurveto
          hintmask 10010010
          132 53 92 102 hvcurveto
          hintmask 01011000
          -90 -10 rmoveto
          -63 -39 -33 -56 vhcurveto
          hintmask 10010010
          -55 -42 31 65 hvcurveto
          142 vlineto
          -28 callsubr
          vhcurveto
          hintmask 10011000
          45 50 -17 -89 hvcurveto
          49 316 rmoveto
          hintmask 10100100
          -103 callgsubr
        </CharString>
        <CharString name="p">
          7 -31 callsubr
          hstemhm
          78 87 2 21 -19 286 hintmask 11110100
          169 -188 rmoveto
          204 vlineto
          -18 25 22 -10 53 hhcurveto
          108 78 63 125 hvcurveto
          139 vlineto
          20 callgsubr
          vhcurveto
          hintmask 11111000
          -37 -41 -13 -17 -20 hvcurveto
          -2 22 rlineto
          -87 -711 hlineto
          hintmask 11110100
          286 399 rmoveto
          -76 -30 -36 -65 -71 -29 42 61 vhcurveto
          144 vlineto
          65 1 41 32 58 hhcurveto
          58 37 -32 -70 hvcurveto
          endchar
        </CharString>
        <CharString name="paragraph">
          218 659 55 hstem
          319 68 125 68 vstem
          667 -199 rmoveto
          949 -403 vlineto
          -132 -54 -102 -124 -124 1 -154 176 hvcurveto
          169 -445 hlineto
          88 1 rlineto
          857 vlineto
          68 -1 rlineto
          -857 vlineto
          endchar
        </CharString>
        <CharString name="parenleft">
          -170 -177 -21 402 63 464 -20 hstem
          78 90 vstem
          235 -51 rmoveto
          -36 21 -31 16 96 vvcurveto
          535 vlineto
          79 26 34 40 17 vhcurveto
          -42 70 rlineto
          -71 -41 -43 -40 -109 vvcurveto
          -556 vlineto
          -109 44 -38 71 -41 vhcurveto
          endchar
        </CharString>
        <CharString name="parenright">
          -170 -177 -21 929 -20 hstem
          155 56 vstem
          120 -117 rmoveto
          71 41 44 38 109 vvcurveto
          556 vlineto
          109 -43 40 -71 41 vhcurveto
          -42 -70 rlineto
          40 -17 25 -34 -79 vvcurveto
          -535 vlineto
          -96 -30 -16 -36 -21 vhcurveto
          endchar
        </CharString>
        <CharString name="percent">
          195 59 74 -55 55 175 55 164 56 0 56 15 55 22 -20 hstemhm
          132 55 0 56 98 106 -4 55 0 55 hintmask 1010111010110000
          100 hmoveto
          11 callgsubr
          464 -70 rmoveto
          -62 callgsubr
          -80 64 -64 80 hvcurveto
          55 144 rmoveto
          hintmask 0110111010100000
          -28 -20 -27 -35 -35 -20 27 28 vhcurveto
          hintmask 0110111011010000
          27 20 28 35 35 20 -28 -27 vhcurveto
          -366 306 rmoveto
          -62 callgsubr
          -80 64 -64 80 hvcurveto
          56 144 rmoveto
          hintmask 1011011101010000
          26 callsubr
          hintmask 1011011011010000
          11 callsubr
        </CharString>
        <CharString name="period">
          -350 0 111 hstem
          4 89 vstem
          49 hmoveto
          -67 callsubr
          endchar
        </CharString>
        <CharString name="perthousand">
          564 -11 198 -109 55 0 55 -55 553 -412 55 39 55 104 56 0 56 15 55 13 -20 29 -20 hstemhm
          112 56 8 55 0 56 69 50 23 50 8 55 0 55 70 50 21 callsubr
          868 -11 rmoveto
          hintmask 000100000101011101100000
          -62 callgsubr
          hvcurveto
          21 callsubr
          -80 64 -64 80 vhcurveto
          hintmask 000100000101011101100000
          54 144 rmoveto
          -27 -20 -27 -34 -34 -20 27 27 vhcurveto
          21 callsubr
          27 20 27 34 vhcurveto
          hintmask 000100000101011101100000
          34 20 -27 -27 hvcurveto
          -778 -133 rmoveto
          11 callgsubr
          21 callsubr
          464 -70 rmoveto
          hintmask 000100000101011101100000
          -62 callgsubr
          hvcurveto
          21 callsubr
          -80 64 -64 80 vhcurveto
          hintmask 010011011011011101100000
          55 144 rmoveto
          -28 -20 -27 -35 vhcurveto
          hintmask 001011011011011110100000
          -35 -20 27 28 27 20 28 35 hvcurveto
          hintmask 010011010101011101100000
          35 20 -28 -27 hvcurveto
          -366 306 rmoveto
          -62 callgsubr
          -80 64 -64 80 hvcurveto
          56 144 rmoveto
          hintmask 100011101011101101100000
          26 callsubr
          hintmask 100011101011011101100000
          11 callsubr
        </CharString>
        <CharString name="phi">
          157 131 79 vstem
          386 -216 rmoveto
          211 31 -6 callsubr
          118 vlineto
          120 -69 80 -118 -62 -58 -38 -68 -4 vhcurveto
          -320 -28 vlineto
          -76 -22 44 92 hvcurveto
          97 vlineto
          85 31 24 44 10 vhcurveto
          -49 28 callsubr
          -125 vlineto
          -116 57 -78 131 vhcurveto
          28 -198 hlineto
          92 284 rmoveto
          303 vlineto
          25 17 23 32 39 40 -27 -93 vhcurveto
          -97 vlineto
          -92 -21 -42 -76 vhcurveto
          endchar
        </CharString>
        <CharString name="pi">
          26 21 -21 449 68 hstem
          264 100 23 80 vstem
          474 50 rmoveto
          -24 14 -5 28 0 vvcurveto
          409 -379 -501 91 418 197 vlineto
          -1 -335 rlineto
          -77 69 -18 0 vhcurveto
          endchar
        </CharString>
        <CharString name="plus">
          -100 21 -21 112 321 hstemhm
          34 320 -206 92 hintmask 11010000
          240 205 rmoveto
          120 vlineto
          hintmask 11100000
          114 88 hlineto
          hintmask 11010000
          -114 132 -92 -132 hlineto
          hintmask 11100000
          -114 -88 hlineto
          hintmask 11010000
          114 -120 hlineto
          endchar
        </CharString>
        <CharString name="plusminus">
          -50 0 68 203 68 hstem
          295 68 vstem
          398 218 rmoveto
          83 -118 50 118 78 -118 116 -85 -116 -117 -78 117 -50 -117 -83 vlineto
          endchar
        </CharString>
        <CharString name="psi">
          158 273 78 vstem
          384 -219 rmoveto
          214 33 -6 callsubr
          157 vlineto
          61 1 63 -57 36 vhcurveto
          -85 -28 rlineto
          25 -21 26 -10 -86 vvcurveto
          -142 vlineto
          -92 -22 -46 -76 vhcurveto
          -33 419 -91 -419 -27 hlineto
          -76 -22 46 92 hvcurveto
          281 -90 -311 vlineto
          -116 57 -78 131 vhcurveto
          27 -201 hlineto
          endchar
        </CharString>
        <CharString name="q">
          -37 -31 callsubr
          hstemhm
          37 287 -145 78 67 90 hintmask 11101100
          414 -210 rmoveto
          711 -86 vlineto
          -3 -25 rlineto
          18 -24 -28 15 -46 hhcurveto
          hintmask 11110000
          -129 -61 -86 -109 hvcurveto
          -138 vlineto
          -125 78 -63 108 53 26 11 18 22 vhcurveto
          -205 vlineto
          hintmask 11101100
          372 vmoveto
          -64 -27 -43 -74 -62 -34 35 62 vhcurveto
          134 vlineto
          101 65 12 31 38 61 -15 -89 2 vhcurveto
          endchar
        </CharString>
        <CharString name="question">
          -87 89 30 537 75 hstem
          17 92 30 88 86 59 vstem
          227 119 rmoveto
          51 -1 -53 1 65 vhcurveto
          2 154 52 -10 65 94 rrcurveto
          133 92 -102 156 -141 hhcurveto
          -119 -59 -84 -93 hvcurveto
          92 hlineto
          56 35 34 58 60 61 -76 -90 -60 vhcurveto
          -44 -65 -80 -48 -131 vvcurveto
          -93 vlineto
          88 -75 rmoveto
          25 -21 20 -24 31 callsubr
          24 21 20 24 vhcurveto
          endchar
        </CharString>
        <CharString name="questiondown">
          -5 -210 75 541 111 hstemhm
          -11 90 68 111 -96 85 72 85 hintmask 11101100
          350 177 rmoveto
          -56 -35 -34 -57 -60 -61 76 90 60 vhcurveto
          43 65 81 48 131 vvcurveto
          93 -89 vlineto
          hintmask 11110100
          -51 1 53 -1 -65 vhcurveto
          -2 -154 -51 10 -65 -94 rrcurveto
          -133 -92 102 -156 141 hhcurveto
          119 59 84 93 hvcurveto
          -165 443 rmoveto
          24 20 20 25 24 -20 20 -24 -25 -20 -20 -24 -25 20 -20 25 hvcurveto
          endchar
        </CharString>
        <CharString name="quotedbl">
          -59 685 -20 hstem
          108 68 74 68 vstem
          173 512 rmoveto
          4 callgsubr
          198 hmoveto
          4 callgsubr
          endchar
        </CharString>
        <CharString name="quotedblbase">
          -163 -147 50 97 111 -110 111 hstemhm
          17 69 3 93 -51 95 -59 69 hintmask 11010010
          160 -83 rmoveto
          hintmask 11010100
          43 38 24 35 -1 46 rrcurveto
          hintmask 11011000
          20 -13 32 -31 2 vhcurveto
          -10 -9 -2 -4 -7 hvcurveto
          -5 3 -6 2 -7 1 -28 1 -20 -20 -1 -26 rrcurveto
          hintmask 10110010
          -8 3 -23 23 -13 vhcurveto
          11 -3 rlineto
          0 -21 -25 -48 -27 vhcurveto
          59 -29 rlineto
          hintmask 11010100
          5 5 5 5 5 4 rrcurveto
          endchar
        </CharString>
        <CharString name="quotedblleft">
          -206 456 111 -45 111 31 50 hstem
          42 69 -56 95 -51 94 -1 69 vstem
          59 632 -52 callsubr
          118 3 -52 callsubr
          endchar
        </CharString>
        <CharString name="quotedblright">
          -206 26 callgsubr
          hstem
          41 104 -59 94 -52 96 2 69 vstem
          190 539 -106 callgsubr
          -70 -29 -106 callgsubr
          endchar
        </CharString>
        <CharString name="quoteleft">
          -356 456 111 -49 111 4 84 hstemhm
          3 93 -87 104 hintmask 10101000
          59 632 -31 callgsubr
          rlineto
          hintmask 10110000
          -43 -38 -24 -35 1 -46 rrcurveto
          -51 callgsubr
          hintmask 01101000
          8 -3 23 -23 13 vhcurveto
          endchar
        </CharString>
        <CharString name="quoteright">
          -356 26 callgsubr
          hstemhm
          1 104 -72 93 hintmask 11001000
          60 537 -57 callgsubr
          hintmask 10110000
          -44 callgsubr
        </CharString>
        <CharString name="quotesinglbase">
          -314 -147 50 97 111 hstem
          47 69 vstem
          63 -84 -106 callgsubr
          endchar
        </CharString>
        <CharString name="quotesingle">
          -312 456 258 0 -20 hstem
          46 82 vstem
          114 589 rmoveto
          14 108 rlineto
          54 -82 -3 -51 vvcurveto
          14 -108 rlineto
          endchar
        </CharString>
        <CharString name="r">
          -121 33 callgsubr
          -12 -20 hstem
          61 86 vstem
          152 -72 callsubr
          -14 callgsubr
          endchar
        </CharString>
        <CharString name="racute">
          -101 33 callgsubr
          9 2 callsubr
          86 -22 109 hintmask 11101000
          169 -72 callsubr
          hintmask 11110000
          -14 callgsubr
          123 538 rmoveto
          -73 callsubr
        </CharString>
        <CharString name="rcaron">
          -80 33 callgsubr
          9 -66 callsubr
          53 300 -273 86 hintmask 11011000
          171 -72 callsubr
          hintmask 11010100
          -14 callgsubr
          288 732 -43 callsubr
          hintmask 11101000
          -97 callgsubr
        </CharString>
        <CharString name="rcommaaccent">
          -105 -1 callgsubr
          439 90 hstemhm
          78 86 -68 37 hintmask 11110000
          169 -72 callsubr
          -14 callgsubr
          45 -12 callsubr
          hintmask 11101000
          -85 callgsubr
        </CharString>
        <CharString name="registered">
          315 -17 55 289 55 139 55 100 55 hstem
          24 68 163 68 186 68 131 68 vstem
          566 39 rmoveto
          -90 200 rlineto
          61 21 20 40 51 vvcurveto
          78 -50 47 -104 vhcurveto
          -130 -437 87 190 33 hlineto
          80 -190 rlineto
          -113 263 rmoveto
          100 53 vlineto
          28 27 -19 -32 -39 -30 -10 -38 hvcurveto
          1 -429 -81 callsubr
          endchar
        </CharString>
        <CharString name="rho">
          -174 -21 183 75 391 63 -63 75 hstem
          229 103 vstem
          168 -195 rmoveto
          213 vlineto
          -18 21 30 -10 47 hhcurveto
          123 62 65 117 hvcurveto
          135 vlineto
          117 -52 83 -134 -120 -67 -74 -118 vhcurveto
          -526 vlineto
          281 394 rmoveto
          -75 -29 -31 -64 -64 -33 32 74 vhcurveto
          121 vlineto
          94 44 24 51 56 39 -24 -95 vhcurveto
          endchar
        </CharString>
        <CharString name="ring">
          -263 619 43 hstemhm
          68 23 callsubr
          hintmask 11000000
          154 662 rmoveto
          -24 -19 -19 -24 -24 -19 19 24 vhcurveto
          hintmask 10100000
          24 19 19 24 24 19 -19 -24 vhcurveto
          -63 callsubr
        </CharString>
        <CharString name="s">
          -54 454 20 callsubr
          159 27 -24 95 hintmask 11001000
          36 127 -69 callsubr
          hintmask 10110000
          -95 callsubr
          hintmask 11001000
          -85 callsubr
          endchar
        </CharString>
        <CharString name="sacute">
          -4 454 75 9 2 callsubr
          90 -78 97 41 109 9 27 -24 95 hintmask 11101010
          78 127 -69 callsubr
          hintmask 11011100
          -95 callsubr
          hintmask 11101010
          -85 callsubr
          119 404 rmoveto
          -73 callsubr
        </CharString>
        <CharString name="scaron">
          -4 454 75 8 -66 callsubr
          78 90 -79 300 -299 97 159 27 -24 95 hintmask 10110001
          78 127 -69 callsubr
          hintmask 10100110
          -95 callsubr
          hintmask 10110001
          -85 callsubr
          236 597 -43 callsubr
          hintmask 11001000
          -97 callgsubr
        </CharString>
        <CharString name="scedilla">
          -54 -224 61 65 50 502 20 callsubr
          107 84 -32 27 -24 95 hintmask 11110100
          103 -78 callsubr
          21 30 rlineto
          hintmask 11101001
          115 6 49 69 74 vvcurveto
          181 -245 -29 -12 78 vhcurveto
          30 -4 16 31 62 hhcurveto
          hintmask 11101010
          57 28 -24 0 hvcurveto
          27 82 rlineto
          0 -41 29 -71 -132 -45 -85 -63 6 vhcurveto
          hintmask 11110001
          -85 callsubr
          -90 -7 2 -66 49 -59 91 -14 rlinecurve
          -51 -66 -77 callgsubr
        </CharString>
        <CharString name="scircumflex">
          -4 454 75 9 142 hstemhm
          78 90 -78 97 -61 251 -31 27 -24 95 hintmask 11001000
          408 579 -105 callsubr
          hintmask 11100010
          -273 -413 -69 callsubr
          hintmask 11010100
          -95 callsubr
          hintmask 11100010
          -85 callsubr
          endchar
        </CharString>
        <CharString name="scommaaccent">
          -54 -123 111 466 20 callsubr
          24 37 98 27 -24 95 hintmask 11101010
          36 127 -69 callsubr
          hintmask 11011100
          -95 callsubr
          hintmask 11101010
          -85 callsubr
          70 -341 -106 callgsubr
          endchar
        </CharString>
        <CharString name="section">
          106 -198 75 779 75 hstem
          76 82 -34 85 -72 88 196 85 -82 88 -37 82 vstem
          78 -8 rmoveto
          -89 3 78 -100 155 hhcurveto
          171 68 88 115 34 -8 29 -15 23 hvcurveto
          16 30 10 54 -3 45 rrcurveto
          -16 239 -347 -53 130 vvcurveto
          49 33 39 100 43 32 -9 -20 39 vhcurveto
          12 36 18 49 1 vvcurveto
          19 -40 -37 11 -69 hhcurveto
          -155 -70 -88 -84 -40 12 -30 20 -25 hvcurveto
          -22 -28 -11 -35 -2 -32 rrcurveto
          -10 -261 376 79 -172 vvcurveto
          -88 -85 -21 -61 -95 -44 60 45 -2 vhcurveto
          283 168 rmoveto
          -95 62 -174 -1 113 vvcurveto
          23 3 18 11 17 vhcurveto
          61 -42 201 -21 -120 vvcurveto
          -18 -3 -16 -4 -15 vhcurveto
          endchar
        </CharString>
        <CharString name="semicolon">
          -327 0 111 295 111 hstem
          50 91 vstem
          95 216 rmoveto
          25 21 20 26 25 -21 20 -25 -25 -20 -20 -25 -26 20 -20 25 hvcurveto
          -19 -300 rmoveto
          42 38 24 35 46 vvcurveto
          20 -13 32 -32 2 vhcurveto
          -27 1 -21 -20 -26 vvcurveto
          -8 2 -23 23 -13 vhcurveto
          12 -3 rlineto
          0 -21 -25 -48 -27 vhcurveto
          endchar
        </CharString>
        <CharString name="seven">
          -46 21 -21 609 91 hstem
          29 394 vstem
          122 hmoveto
          301 609 rlineto
          91 -394 -91 292 vlineto
          -300 -609 rlineto
          endchar
        </CharString>
        <CharString name="sigma">
          75 -12 75 354 78 125 55 hstem
          208 341 -312 103 119 90 vstem
          451 310 -13 callsubr
          -75 callgsubr
          -92 11 -53 callsubr
          12 callgsubr
        </CharString>
        <CharString name="sigma1">
          -59 -12 75 391 75 hstem
          81 104 vstem
          362 -150 rmoveto
          35 52 12 103 -86 54 rrcurveto
          -129 82 -24 21 90 vvcurveto
          80 vlineto
          54 16 37 62 57 33 -24 0 vhcurveto
          24 79 rlineto
          0 -41 27 -71 -132 -40 -81 -57 vhcurveto
          -140 vlineto
          -119 99 -52 93 -59 vhcurveto
          47 -29 -5 -50 -19 -29 rrcurveto
          endchar
        </CharString>
        <CharString name="sigma_chi">
          527 8 callsubr
          75 151 12 -20 123 55 hstemhm
          237 103 172 500 hintmask 11001111
          975 27 callgsubr
          -125 259 rcurveline
          167 314 rlineto
          -102 hlineto
          -112 -217 -27 53 -29 59 3 63 40 26 rlinecurve
          -59 51 -19 -21 -88 -64 65 -130 rlinecurve
          65 -132 -26 callsubr
          -480 522 -13 callsubr
          hintmask 11010111
          -75 callgsubr
          -92 11 -53 callsubr
          hintmask 10101111
          12 callgsubr
        </CharString>
        <CharString name="sigma_tau">
          358 -12 75 454 -20 123 55 hstemhm
          47 90 321 341 -340 90 37 85 hintmask 11110110
          608 132 rmoveto
          -78 41 -51 78 -21 vhcurveto
          11 22 13 22 11 21 rrcurveto
          31 callgsubr
          109 85 -290 vlineto
          -23 3 -17 20 -19 20 rrcurveto
          hintmask 11111000
          -75 callgsubr
          135 vlineto
          66 -16 29 -10 12 vhcurveto
          26 7 17 7 14 13 33 -29 rcurveline
          93 hlineto
          -249 -229 -53 callsubr
          12 callgsubr
        </CharString>
        <CharString name="six">
          -27 -12 213 hstemhm
          17 91 121 67 -67 213 hintmask 11010000
          17 201 rmoveto
          -118 94 -95 118 118 95 95 118 vhcurveto
          hintmask 11100000
          118 -95 94 -118 -43 -54 -19 -26 -24 vhcurveto
          77 vlineto
          135 82 29 75 vhcurveto
          31 91 -35 hlineto
          -189 -55 -143 -96 hvcurveto
          90 -255 rmoveto
          65 1 54 51 67 hhcurveto
          68 54 -53 -68 -68 -54 -55 -68 -68 -54 55 68 hvcurveto
          endchar
        </CharString>
        <CharString name="slash">
          -30 731 -20 hstem
          -23 456 vstem
          114 25 callgsubr
          325 931 rlineto
          -98 hlineto
          -324 -931 rlineto
          endchar
        </CharString>
        <CharString name="space">
          -207 endchar
        </CharString>
        <CharString name="sterling">
          -10 0 80 355 80 199 -20 hstemhm
          78 360 -337 320 hintmask 11110000
          438 hmoveto
          85 -207 vlineto
          35 43 13 36 4 57 2 24 -6 28 -8 30 rrcurveto
          hintmask 11101000
          150 90 -179 hlineto
          -10 31 -17 50 39 vvcurveto
          42 25 68 78 36 27 -11 -10 18 vhcurveto
          28 82 rlineto
          13 -21 -36 12 -52 hhcurveto
          -111 -82 -76 -118 -50 13 -39 11 -33 hvcurveto
          -48 -90 77 hlineto
          8 -28 6 -27 -23 vvcurveto
          hintmask 11110000
          -75 -41 -55 -73 -12 vhcurveto
          -83 vlineto
          endchar
        </CharString>
        <CharString name="t">
          -222 -24 callgsubr
          hstemhm
          -122 401 -235 85 hintmask 11100000
          207 -52 callgsubr
          hintmask 11010000
          -36 callsubr
          endchar
        </CharString>
        <CharString name="t_t">
          12 -24 callgsubr
          hstem
          49 85 230 85 vstem
          441 59 rmoveto
          -42 6 -28 18 49 vvcurveto
          283 79 -6 callgsubr
          -103 199 -93 -199 -142 199 -36 callsubr
          27 72 rlineto
          -42 6 -29 18 49 vvcurveto
          283 142 -283 vlineto
          -78 33 -58 103 -9 vhcurveto
          endchar
        </CharString>
        <CharString name="tau">
          -69 21 -78 callgsubr
          123 55 hstem
          108 190 -178 85 vstem
          335 47 rmoveto
          31 callgsubr
          108 85 -301 -85 102 -283 vlineto
          -78 41 -51 78 -21 vhcurveto
          endchar
        </CharString>
        <CharString name="tbar">
          -104 0 75 108 80 179 75 hstemhm
          -18 401 -305 234 -164 85 hintmask 11110000
          311 59 rmoveto
          -43 6 -28 18 49 vvcurveto
          138 vlineto
          hintmask 11101000
          72 88 -72 57 80 hlineto
          24 86 rlineto
          -104 199 hlineto
          hintmask 11100100
          -92 -342 hlineto
          hintmask 11101000
          -70 -88 hlineto
          hintmask 11100100
          70 -138 hlineto
          -78 32 -58 104 -9 vhcurveto
          endchar
        </CharString>
        <CharString name="tcaron">
          -127 -24 callgsubr
          164 -66 callsubr
          -46 401 -336 300 -199 85 hintmask 11001000
          283 -52 callgsubr
          hintmask 11000010
          -36 callsubr
          hintmask 00010100
          78 888 -5 callsubr
          hintmask 00100100
          -56 -39 148 -141 rlineto
          endchar
        </CharString>
        <CharString name="tcommaaccent">
          -212 23 callgsubr
          11 75 367 75 hstemhm
          -112 401 -235 85 -64 37 24 80 hintmask 11110000
          217 -52 callgsubr
          hintmask 11101000
          -36 callsubr
          -88 -193 -103 callsubr
          hintmask 11100110
          -85 callgsubr
        </CharString>
        <CharString name="theta">
          18 -12 75 557 55 -41 75 hstem
          107 341 -216 102 90 90 vstem
          442 505 rmoveto
          124 -62 78 -130 3 vhcurveto
          -155 -57 -138 -134 77 hvcurveto
          -37 -24 -15 -36 -1 -37 rrcurveto
          -150 vlineto
          -115 64 -81 126 -1 vhcurveto
          125 65 82 115 hvcurveto
          -90 hmoveto
          -137 -200 3 128 vvcurveto
          136 vlineto
          55 105 38 95 4 vhcurveto
          -155 59 rmoveto
          78 -48 25 67 80 hhcurveto
          54 44 -33 -83 hvcurveto
          -39 2 -62 -9 -54 -22 rrcurveto
          endchar
        </CharString>
        <CharString name="thorn">
          7 -214 1000 -798 51 384 86 205 -20 hstemhm
          23 90 -35 90 69 55 hintmask 10000110
          -23 callsubr
          hvcurveto
          hintmask 01111010
          20 callgsubr
          vhcurveto
          hintmask 10000110
          -34 -39 -12 -18 -24 hvcurveto
          109 -90 -588 vlineto
          90 320 rmoveto
          hintmask 01111010
          -8 callgsubr
          hintmask 10000110
          -51 -50 31 87 hvcurveto
          endchar
        </CharString>
        <CharString name="three">
          -62 -12 75 571 75 hstem
          17 60 13 199 27 -24 callsubr
          -91 82 -95 11 hvcurveto
          -4 1 132 198 rlineto
          89 -288 -91 187 vlineto
          -189 -284 rlineto
          110 hlineto
          84 -4 63 -43 -77 vvcurveto
          -66 -47 -58 -76 -48 -45 27 40 -23 vhcurveto
          endchar
        </CharString>
        <CharString name="tilde">
          -25 620 36 -15 56 hstem
          78 345 vstem
          387 697 rmoveto
          -103 callgsubr
        </CharString>
        <CharString name="trademark">
          87 659 55 hstem
          105 63 37 67 103 102 vstem
          477 512 rmoveto
          188 -64 vlineto
          -38 -108 -39 108 rlineto
          -231 -46 63 -142 48 142 56 -142 48 120 hlineto
          40 -120 rlineto
          31 hlineto
          40 120 rlineto
          -120 vlineto
          endchar
        </CharString>
        <CharString name="two">
          -85 0 75 559 75 hstem
          17 106 185 62 vstem
          383 hmoveto
          84 -260 vlineto
          213 322 rlineto
          155 101 -83 149 -149 hhcurveto
          -88 -62 -55 -65 -23 hvcurveto
          82 -41 rlineto
          39 8 35 33 42 hhcurveto
          73 56 -73 -110 -73 hvcurveto
          -238 -354 rlineto
          -84 vlineto
          endchar
        </CharString>
        <CharString name="u">
          -38 -66 callgsubr
          hstem
          36 91 191 91 vstem
          409 hmoveto
          -104 callgsubr
          endchar
        </CharString>
        <CharString name="uacute">
          -66 callgsubr
          41 1 callsubr
          74 109 8 91 vstem
          451 hmoveto
          -104 callgsubr
          -63 538 rmoveto
          -73 callsubr
        </CharString>
        <CharString name="ubreve">
          -12 75 35 -21 440 -20 38 66 83 -20 -18 callsubr
          -12 226 -18 86 hintmask 11111010
          383 653 -99 callsubr
          hintmask 11111101
          68 -648 rmoveto
          -104 callgsubr
          endchar
        </CharString>
        <CharString name="ucircumflex">
          -66 callgsubr
          40 13 callgsubr
          78 91 -41 251 -19 91 vstem
          451 hmoveto
          -104 callgsubr
          45 578 -105 callsubr
          endchar
        </CharString>
        <CharString name="udieresis">
          -66 callgsubr
          -17 callgsubr
          191 91 vstem
          451 hmoveto
          -104 callgsubr
          -130 579 -107 callsubr
          endchar
        </CharString>
        <CharString name="ugrave">
          -66 callgsubr
          41 -18 callgsubr
          78 91 12 119 60 91 -55 109 vstem
          451 hmoveto
          -104 callgsubr
          -69 540 -100 callsubr
          endchar
        </CharString>
        <CharString name="uhungarumlaut">
          -66 callgsubr
          46 2 callsubr
          91 -9 109 22 109 -40 91 hintmask 01110101
          451 hmoveto
          -45 callsubr
          vlineto
          -65 -25 -41 -69 vhcurveto
          hintmask 10111010
          -68 -29 35 68 hvcurveto
          321 -91 -329 vlineto
          -125 67 -58 121 39 34 14 19 23 vhcurveto
          hintmask 01110110
          3 -22 rlineto
          hintmask 01110101
          -15 543 rmoveto
          -107 callgsubr
          -68 hmoveto
          -73 callsubr
        </CharString>
        <CharString name="umacron">
          -66 callgsubr
          41 79 -17 callgsubr
          -76 334 -67 91 vstem
          451 hmoveto
          -104 callgsubr
          3 538 -47 callsubr
        </CharString>
        <CharString name="underscore">
          -138 -125 50 hstem
          70 320 vstem
          390 -68 rmoveto
          68 -320 -68 vlineto
          endchar
        </CharString>
        <CharString name="uni00A0">
          -207 endchar
        </CharString>
        <CharString name="uni00AD">
          -75 238 80 hstem
          50 289 vstem
          365 325 -2 callgsubr
          endchar
        </CharString>
        <CharString name="uni0394">
          44 0 83 617 -20 hstem
          523 hmoveto
          -213 700 rlineto
          -90 hlineto
          -202 -700 rlineto
          381 83 rmoveto
          -258 hlineto
          127 445 rlineto
          endchar
        </CharString>
        <CharString name="uni03BC">
          37 -177 -21 186 -64 callgsubr
          hstemhm
          78 85 258 85 hintmask 11011100
          485 -77 callsubr
        </CharString>
        <CharString name="uogonek">
          -4 27 callsubr
          151 -64 callgsubr
          hstemhm
          36 91 127 68 -4 91 hintmask 11011100
          398 -59 callsubr
          hintmask 10111100
          -1 28 26 35 70 58 rrcurveto
          hintmask 10111010
          1 -45 callsubr
          hlineto
          -65 -25 -41 -69 -68 -29 35 68 vhcurveto
          321 -91 -329 vlineto
          -125 67 -58 121 39 34 14 19 23 vhcurveto
          3 -22 rlineto
          20 hlineto
          -86 -54 -8 -49 -19 -86 callgsubr
          endchar
        </CharString>
        <CharString name="upsilon">
          -2 -66 callgsubr
          hstem
          241 101 65 85 vstem
          355 205 -90 callsubr
        </CharString>
        <CharString name="upsilondieresis">
          10 -66 callgsubr
          hstem
          108 80 65 101 65 85 -55 85 vstem
          242 579 -107 callsubr
          25 -334 -90 callsubr
        </CharString>
        <CharString name="upsilondieresistonos">
          10 -66 callgsubr
          hstem
          70 82 101 101 57 85 -77 85 vstem
          213 582 rmoveto
          22 -19 19 -22 -22 -18 -19 -22 -22 18 -18 22 22 19 18 22 vhcurveto
          157 -40 rmoveto
          22 18 18 22 23 -18 18 -22 -23 -18 -18 -23 -22 18 -18 23 hvcurveto
          -74 34 rmoveto
          56 73 21 27 -9 28 -24 10 rlinecurve
          -16 7 -31 -5 -12 -29 -72 callgsubr
          rcurveline
          134 -371 -90 callsubr
        </CharString>
        <CharString name="upsilontonos">
          10 -66 callgsubr
          41 -13 callgsubr
          86 85 82 101 -101 109 -106 109 54 85 -75 85 vstem
          312 538 rmoveto
          -107 callgsubr
          118 -333 -90 callsubr
        </CharString>
        <CharString name="uring">
          -66 callgsubr
          49 23 callsubr
          -18 callsubr
          58 23 callsubr
          47 91 hintmask 0111010110000000
          451 hmoveto
          -104 callgsubr
          -52 589 -2 callsubr
          hintmask 1010111010000000
          -32 callsubr
          hintmask 1011010110000000
          14 callsubr
          -63 callsubr
        </CharString>
        <CharString name="utilde">
          -66 callgsubr
          32 9 callgsubr
          78 91 -72 345 -82 91 hintmask 01101101
          451 hmoveto
          -104 callgsubr
          41 632 rmoveto
          hintmask 10110010
          -103 callgsubr
        </CharString>
        <CharString name="v">
          -42 0 86 431 -20 hstemhm
          14 410 -206 42 hintmask 11010000
          267 -38 callsubr
        </CharString>
        <CharString name="w">
          223 0 94 317 106 0 -20 hstem
          14 675 vstem
          529 hmoveto
          160 501 rlineto
          -98 hlineto
          -100 -354 -93 354 rlineto
          -87 hlineto
          -93 -354 -105 354 rlineto
          -99 hlineto
          158 -501 rlineto
          97 hlineto
          83 315 82 -315 rlineto
          endchar
        </CharString>
        <CharString name="w_w_w">
          1385 21 -21 501 -20 hstem
          1692 hmoveto
          159 501 rlineto
          -97 hlineto
          -105 -362 -88 362 rlineto
          -88 hlineto
          -31 -118 -30 -133 -31 -118 -35 -10 callgsubr
          -106 hlineto
          -34 -118 -33 -133 -34 -118 -22 callgsubr
          -30 -118 -35 -10 callgsubr
          -100 hlineto
          -3 -11 -2 -12 -4 -11 -30 -107 -30 -121 -30 -107 -22 callgsubr
          -31 -118 -34 -10 callgsubr
          -99 hlineto
          53 -167 52 -167 53 -167 rrcurveto
          97 hlineto
          27 105 28 105 28 105 27 -105 28 -105 27 -105 rrcurveto
          95 hlineto
          37 116 37 115 37 117 37 -117 36 -115 36 -116 rrcurveto
          97 hlineto
          27 105 29 105 27 105 28 -105 27 -105 27 -105 rrcurveto
          95 hlineto
          39 120 37 121 39 120 38 -120 38 -121 38 -120 rrcurveto
          96 hlineto
          28 105 28 105 27 105 28 -105 27 -105 28 -105 rrcurveto
          endchar
        </CharString>
        <CharString name="x">
          44 8 callsubr
          238 -20 hstem
          67 425 vstem
          487 hmoveto
          -153 250 158 251 rlineto
          -110 hlineto
          -103 -163 -100 163 rlineto
          -112 hlineto
          156 -252 -156 -249 rlineto
          112 hlineto
          100 160 100 -160 rlineto
          endchar
        </CharString>
        <CharString name="xi">
          -68 203 78 vstem
          380 -192 rmoveto
          294 vlineto
          -113 -35 -99 -4 119 vvcurveto
          146 vlineto
          103 75 11 89 -26 vhcurveto
          26 78 -24 8 -25 6 -23 16 rlinecurve
          30 -45 5 59 55 hhcurveto
          23 hlineto
          21 95 rlineto
          -45 hlineto
          -127 -47 -133 -68 68 hvcurveto
          -45 -9 -71 -51 -99 vvcurveto
          -184 vlineto
          -145 122 -30 90 10 vhcurveto
          -217 vlineto
          endchar
        </CharString>
        <CharString name="y">
          12 -1 callsubr
          hstemhm
          37 375 -172 79 hintmask 11010000
          288 -210 rmoveto
          hintmask 11100000
          -94 callgsubr
          endchar
        </CharString>
        <CharString name="y_alt">
          55 -177 -21 699 -20 hstem
          216 -198 -71 callgsubr
          endchar
        </CharString>
        <CharString name="yacute">
          56 -1 callsubr
          41 2 callsubr
          375 -172 79 hintmask 11101000
          329 -210 rmoveto
          hintmask 11110000
          -94 callgsubr
          3 676 rmoveto
          -73 callsubr
        </CharString>
        <CharString name="yacute_alt">
          55 543 -9 callgsubr
          75 133 14 109 hintmask 01000000
          216 -198 -71 callgsubr
          hintmask 10100000
          165 741 rmoveto
          -73 callsubr
        </CharString>
        <CharString name="ydieresis">
          56 -1 callsubr
          hstemhm
          78 375 -172 79 hintmask 11010000
          329 -210 rmoveto
          hintmask 11100000
          -94 callgsubr
          45 677 rmoveto
          23 18 18 23 -93 callsubr
          -57 callsubr
          hvcurveto
          -100 40 rmoveto
          23 -18 18 -23 -22 -18 -18 -23 -22 18 -18 22 23 18 18 22 vhcurveto
          endchar
        </CharString>
        <CharString name="ydieresis_alt">
          49 -177 -21 699 -20 58 81 1 -20 hstemhm
          138 81 59 82 hintmask 11101100
          219 579 rmoveto
          23 -18 18 -23 -22 -18 -18 -23 -22 18 -18 22 23 18 18 22 vhcurveto
          100 -40 rmoveto
          23 18 18 23 hvcurveto
          hintmask 11011100
          -93 callsubr
          vhcurveto
          hintmask 11101100
          -57 callsubr
          vhcurveto
          -109 -737 -71 callgsubr
          endchar
        </CharString>
        <CharString name="yen">
          102 21 -21 174 60 36 80 -41 60 345 -20 hstemhm
          131 79 -54 320 -214 95 hintmask 11101101
          360 hmoveto
          221 vlineto
          hintmask 11101010
          116 hlineto
          hintmask 11011010
          88 -116 15 vlineto
          16 33 rlineto
          100 88 -55 hlineto
          129 255 rlineto
          -98 hlineto
          -129 -255 rlineto
          -21 hlineto
          -127 255 rlineto
          -97 hlineto
          129 -255 rlineto
          -51 -88 95 hlineto
          17 -33 rlineto
          -15 -112 -88 112 -221 vlineto
          endchar
        </CharString>
        <CharString name="z">
          -3 -24 callgsubr
          hstem
          87 358 vstem
          -84 callsubr
          endchar
        </CharString>
        <CharString name="zacute">
          -3 -24 callgsubr
          21 -13 callgsubr
          87 358 -217 109 vstem
          -84 callsubr
          209 538 rmoveto
          -73 callsubr
        </CharString>
        <CharString name="zcaron">
          -3 -24 callgsubr
          20 -66 callsubr
          87 358 -329 300 hintmask 11011000
          -84 callsubr
          353 731 -43 callsubr
          hintmask 11100100
          -97 callgsubr
        </CharString>
        <CharString name="zdotaccent">
          -3 -24 callgsubr
          -33 104 hstem
          87 358 -241 100 vstem
          -84 callsubr
          183 535 -99 callgsubr
          endchar
        </CharString>
        <CharString name="zero">
          64 -12 75 557 96 -82 75 hstemhm
          63 91 -88 53 143 81 21 53 -25 91 hintmask 10101101
          483 506 rmoveto
          hintmask 11001110
          -68 callsubr
          vhcurveto
          hintmask 10110110
          -75 callsubr
          vhcurveto
          hintmask 10101101
          -8 callsubr
          hintmask 10110110
          -25 callsubr
          hintmask 11001110
          85 31 48 88 vhcurveto
          hintmask 10101101
          -33 callsubr
          hvcurveto
          endchar
        </CharString>
        <CharString name="zeta">
          6 138 79 vstem
          407 -183 rmoveto
          286 vlineto
          -95 -25 -73 -4 -39 41 -47 47 23 95 48 84 70 122 90 100 70 55 -36 82 rcurveline
          -272 -88 172 hlineto
          -53 -54 -87 -89 -64 -133 -28 -58 -14 -81 9 -59 16 -96 92 -59 127 20 rrcurveto
          -212 vlineto
          endchar
        </CharString>
      <CharString index="0">
        56 73 21 27 -10 28 -23 10 rlinecurve
        -16 7 -31 -5 -12 -29 -72 callgsubr
        rcurveline
        return
      </CharString>
      <CharString index="1">
        -57 callgsubr
        -8 3 -23 23 -13 vhcurveto
        11 -3 rlineto
        0 -21 -25 -48 -27 vhcurveto
        return
      </CharString>
      <CharString index="2">
        404 212 rmoveto
        -28 callgsubr
        -27 callgsubr
        vhcurveto
        489 -91 -515 vlineto
        -147 112 -46 99 99 111 46 16 callsubr
        515 -91 vlineto
        return
      </CharString>
      <CharString index="3">
        -45 callsubr
        vlineto
        -65 -25 -41 -69 -68 -29 35 68 vhcurveto
        321 -91 -329 vlineto
        -125 67 -58 121 39 34 14 19 23 vhcurveto
        3 -22 rlineto
        return
      </CharString>
      <CharString index="4">
        -102 -112 -82 208 -125 -143 34 -56 rcurveline
        111 117 78 -215 122 145 rrcurveto
        endchar
      </CharString>
      <CharString index="5">
        101 hlineto
        53 205 rlineto
        184 hlineto
        55 -205 rlineto
        -77 300 rmoveto
        -140 hlineto
        68 250 rlineto
        return
      </CharString>
      <CharString index="6">
        -123 -38 -132 -9 125 vvcurveto
        328 vlineto
        77 60 27 56 33 35 -5 -13 35 vhcurveto
        26 78 -78 40 -106 6 -65 -38 rlinecurve
        -53 -32 -34 -40 -109 vvcurveto
        -321 vlineto
        return
      </CharString>
      <CharString index="7">
        -66 -20 -141 -13 110 vvcurveto
        145 vlineto
        97 85 38 119 -47 vhcurveto
        25 76 rlineto
        -155 72 -165 -47 -195 vvcurveto
        -128 vlineto
        -101 33 -51 79 -26 vhcurveto
        return
      </CharString>
      <CharString index="8">
        rmoveto
        26 23 24 27 26 -23 23 -26 -27 -24 -23 -26 -27 24 -24 27 hvcurveto
        return
      </CharString>
      <CharString index="9">
        -56 callgsubr
        hintmask 11101000
        463 298 rmoveto
        -89 callsubr
        hintmask 11101000
        -74 callsubr
        hintmask 11110000
        -91 79 -76 callgsubr
        return
      </CharString>
      <CharString index="10">
        -86 -91 -91 91 -56 -39 148 -141 rlineto
        endchar
      </CharString>
      <CharString index="11">
        -71 callsubr
        -85 -11 -45 -25 -7 16 rcurveline
        -83 -501 90 400 hlineto
        85 44 103 -19 -100 vvcurveto
        28 callgsubr
        return
      </CharString>
      <CharString index="12">
        -205 vlineto
        -104 71 -45 99 3 vhcurveto
        57 1 61 17 47 29 rrcurveto
        -67 243 rmoveto
        return
      </CharString>
      <CharString index="13">
        94 16 30 52 81 vvcurveto
        427 vlineto
        32 15 30 36 10 vhcurveto
        -32 72 rlineto
        -77 -13 -32 -66 -68 vvcurveto
        -171 vlineto
        -91 -40 -24 -62 -59 -34 27 88 vhcurveto
        309 -90 28 callgsubr
        -125 67 -63 116 47 35 11 19 20 vhcurveto
        -76 vlineto
        -52 -32 -22 -35 -6 vhcurveto
        return
      </CharString>
      <CharString index="14">
        -322 vlineto
        -147 112 -49 99 99 110 49 16 callsubr
        -91 14 rmoveto
        return
      </CharString>
      <CharString index="15">
        -121 -64 -88 14 82 vvcurveto
        39 vlineto
        268 15 rlineto
        144 vlineto
        return
      </CharString>
      <CharString index="16">
        239 -353 -24 -7 122 vhcurveto
        52 -3 45 36 87 hhcurveto
        43 36 -9 -15 37 hvcurveto
        12 36 17 49 1 vvcurveto
        19 -40 -37 11 -69 hhcurveto
        -155 -71 -89 -84 hvcurveto
        return
      </CharString>
      <CharString index="17">
        700 -155 -86 vlineto
        63 -2 rlineto
        -612 vlineto
        return
      </CharString>
      <CharString index="18">
        570 24 callsubr
        -92 -514 vlineto
        -309 514 rlineto
        -48 callsubr
        516 hlineto
        309 -516 rlineto
        return
      </CharString>
      <CharString index="19">
        -12 -74 callgsubr
        hstemhm
        35 -19 callsubr
        hintmask 11001000
        336 16 callgsubr
        -92 callgsubr
        hintmask 10110000
        -41 callsubr
        -49 callsubr
        vhcurveto
        -95 callgsubr
        hintmask 10101000
        -55 callgsubr
        hintmask 11010000
        48 31 37 60 37 48 -20 -60 vhcurveto
        return
      </CharString>
      <CharString index="20">
        -91 callsubr
        vhcurveto
        hintmask 10101000
        132 53 92 102 hvcurveto
        return
      </CharString>
      <CharString index="21">
        vvcurveto
        -72 -3 66 -19 26 hhcurveto
        48 32 11 39 25 hvcurveto
        return
      </CharString>
      <CharString index="22">
        -28 1 -20 -20 -1 -26 rrcurveto
        -44 callgsubr
      </CharString>
      <CharString index="23">
        16 callgsubr
        hintmask 11010010
        -92 callgsubr
        hintmask 10110100
        -41 callsubr
        vhcurveto
        hintmask 10111000
        -49 callsubr
        hvcurveto
        -95 callgsubr
        hintmask 10110010
        -55 callgsubr
        hintmask 11010100
        -46 callsubr
        return
      </CharString>
      <CharString index="24">
        -87 callsubr
        -1 28 26 35 70 58 rrcurveto
        return
      </CharString>
      <CharString index="25">
        -135 -21 -68 34 84 vvcurveto
        66 vlineto
        return
      </CharString>
      <CharString index="26">
        102 8 38 53 85 vvcurveto
        565 -77 vlineto
        -12 -27 rlineto
        21 -14 -37 15 -47 hhcurveto
        return
      </CharString>
      <CharString index="27">
        hmoveto
        85 -373 vlineto
        367 526 rlineto
        89 -468 -89 353 vlineto
        -366 -528 rlineto
        -83 vlineto
        return
      </CharString>
      <CharString index="28">
        21 21 -78 callgsubr
        217 -20 hstem
        80 101 vstem
        469 79 rmoveto
        -24 1 -24 11 -40 54 -109 154 rcurveline
        184 202 rlineto
        -114 hlineto
        -173 -189 rlineto
        187 vlineto
        -91 13 rlineto
        -512 91 196 vlineto
        37 35 88 -121 42 -57 38 -53 74 -1 rlinecurve
        endchar
      </CharString>
      <CharString index="29">
        -21 517 -20 return
      </CharString>
      <CharString index="30">
        29 -42 41 19 rlineto
        47 22 28 -16 -27 vvcurveto
        -30 -33 -11 -27 -21 -20 0 25 -37 vhcurveto
        endchar
      </CharString>
      <CharString index="31">
        rmoveto
        hintmask 11101000
        -82 callgsubr
        hintmask 11110000
        -76 callsubr
        return
      </CharString>
      <CharString index="32">
        -51 -46 -41 -2 -80 10 rrcurveto
        -99 12 -109 -30 -133 vvcurveto
        -179 vlineto
        -116 57 -78 131 132 53 74 120 vhcurveto
        return
      </CharString>
      <CharString index="33">
        51 144 240 -155 242 return
      </CharString>
      <CharString index="34">
        -128 -84 -68 -141 return
      </CharString>
      <CharString index="35">
        -48 -111 return
      </CharString>
      <CharString index="36">
        rmoveto
        287 699 rlineto
        -99 hlineto
        -150 -374 -142 374 rlineto
        -102 hlineto
        193 -494 -87 -205 rlineto
        return
      </CharString>
      <CharString index="37">
        -34 callgsubr
        -45 callgsubr
        return
      </CharString>
      <CharString index="38">
        37 178 rmoveto
        -89 3 78 -100 155 hhcurveto
        171 68 93 111 hvcurveto
        return
      </CharString>
      <CharString index="39">
        hmoveto
        610 158 90 -402 -90 153 -610 vlineto
        return
      </CharString>
      <CharString index="40">
        501 -91 -501 vlineto
        endchar
      </CharString>
      <CharString index="41">
        -12 -64 callgsubr
        return
      </CharString>
      <CharString index="42">
        141 568 rmoveto
        -107 callgsubr
        return
      </CharString>
      <CharString index="43">
        75 -42 -78 callgsubr
        return
      </CharString>
      <CharString index="44">
        -34 hlineto
        -17 -83 rlineto
        228 83 hlineto
        -37 5 -88 -7 114 vvcurveto
        289 vlineto
        92 41 37 70 vhcurveto
        89 hlineto
        66 41 -47 -82 hvcurveto
        -288 vlineto
        -114 -85 6 -39 -5 vhcurveto
        -83 vlineto
        return
      </CharString>
      <CharString index="45">
        80 64 64 80 80 -64 64 -80 -80 -64 -64 -80 return
      </CharString>
      <CharString index="46">
        289 vlineto
        85 31 48 88 return
      </CharString>
      <CharString index="47">
        hmoveto
        -17 83 rlineto
        -36 hlineto
        16 21 24 23 69 vvcurveto
        307 vlineto
        116 -57 88 -131 vhcurveto
        -112 hlineto
        -131 -57 -88 -116 hvcurveto
        -307 vlineto
        -67 18 -25 20 -21 vhcurveto
        return
      </CharString>
      <CharString index="48">
        204 343 rlineto
        -107 hlineto
        -152 -254 -156 254 rlineto
        -107 hlineto
        205 -349 -219 -351 rlineto
        113 hlineto
        160 261 164 -261 rlineto
        endchar
      </CharString>
      <CharString index="49">
        -57 callgsubr
        hintmask 10110101
        -44 callgsubr
      </CharString>
      <CharString index="50">
        -103 callsubr
        -28 1 -20 -20 -1 -26 rrcurveto
        return
      </CharString>
      <CharString index="51">
        hstemhm
        78 294 -203 294 return
      </CharString>
      <CharString index="52">
        -176 -10 rlineto
        70 vlineto
        return
      </CharString>
      <CharString index="53">
        rmoveto
        97 11 37 61 99 vvcurveto
        544 return
      </CharString>
      <CharString index="54">
        -10 432 -344 434 return
      </CharString>
      <CharString index="55">
        59 rmoveto
        -43 6 -28 18 49 vvcurveto
        283 80 vlineto
        24 86 rlineto
        -104 199 hlineto
        return
      </CharString>
      <CharString index="56">
        -20 13 -32 31 -2 vhcurveto
        28 -1 20 20 1 26 rrcurveto
        return
      </CharString>
      <CharString index="57">
        27 88 rlineto
        -156 return
      </CharString>
      <CharString index="58">
        rmoveto
        -98 -21 -91 22 71 vvcurveto
        167 vlineto
        117 118 -2 71 -37 vhcurveto
        return
      </CharString>
      <CharString index="59">
        42 21 -21 300 -20 return
      </CharString>
      <CharString index="60">
        310 126 vlineto
        76 50 -29 -111 -61 3 -109 -125 hvcurveto
        -130 -300 rmoveto
        212 152 vlineto
        181 10 171 88 return
      </CharString>
      <CharString index="61">
        -42 rmoveto
        hintmask 11110000
        -91 -73 -6 0 vhcurveto
        0 22 -69 -1 vvcurveto
        hintmask 11101000
        73 66 58 76 3 hvcurveto
        576 -163 vlineto
        23 -78 49 -8 rlineto
        return
      </CharString>
      <CharString index="62">
        90 -334 -700 return
      </CharString>
      <CharString index="63">
        -8 3 -23 23 -13 vhcurveto
        11 -3 rlineto
        0 -21 -25 -48 -27 vhcurveto
        endchar
      </CharString>
      <CharString index="64">
        64 0 42 578 96 return
      </CharString>
      <CharString index="65">
        583 hmoveto
        -212 700 rlineto
        -90 hlineto
        -203 -700 rlineto
        382 83 rmoveto
        -259 hlineto
        128 445 rlineto
        endchar
      </CharString>
      <CharString index="66">
        -142 106 -57 105 48 33 11 19 28 vhcurveto
        return
      </CharString>
      <CharString index="67">
        -201 79 -117 -82 -141 vvcurveto
        -532 92 -36 callgsubr
        74 85 19 49 -39 vhcurveto
        return
      </CharString>
      <CharString index="68">
        -21 714 -20 return
      </CharString>
      <CharString index="69">
        78 53 90 vstem
        508 24 callsubr
        -90 -287 -249 287 -48 callsubr
        325 22 callsubr
        vlineto
        return
      </CharString>
      <CharString index="70">
        rmoveto
        187 187 rlineto
        1 vlineto
        -187 187 -60 -60 return
      </CharString>
      <CharString index="71">
        -25 callgsubr
        48 hlineto
        return
      </CharString>
      <CharString index="72">
        143 -142 143 return
      </CharString>
      <CharString index="73">
        197 243 return
      </CharString>
      <CharString index="74">
        hmoveto
        -260 384 217 317 rlineto
        -109 hlineto
        return
      </CharString>
      <CharString index="75">
        301 hmoveto
        161 49 111 95 100 -52 55 -51 23 hvcurveto
        1 vlineto
        1 0 0 1 1 vhcurveto
        return
      </CharString>
      <CharString index="76">
        rmoveto
        0 21 25 48 27 vhcurveto
        -59 29 return
      </CharString>
      <CharString index="77">
        165 0 186 330 184 return
      </CharString>
      <CharString index="78">
        48 31 37 60 vhcurveto
        return
      </CharString>
      <CharString index="79">
        -84 -36 -47 -84 return
      </CharString>
      <CharString index="80">
        -83 -36 47 84 return
      </CharString>
      <CharString index="81">
        rmoveto
        -81 callgsubr
        return
      </CharString>
      <CharString index="82">
        415 73 vlineto
        24 86 rlineto
        -97 return
      </CharString>
      <CharString index="83">
        0 75 367 75 return
      </CharString>
      <CharString index="84">
        -51 callgsubr
        8 -3 23 -23 13 vhcurveto
        return
      </CharString>
      <CharString index="85">
        -31 118 -31 133 -31 118 rrcurveto
        -87 hlineto
        -31 -118 -31 -133 return
      </CharString>
      <CharString index="86">
        771 -105 callsubr
        return
      </CharString>
      <CharString index="87">
        7 -64 139 -87 188 245 53 return
      </CharString>
      <CharString index="88">
        -53 -12 52 619 51 return
      </CharString>
      <CharString index="89">
        143 -1 -13 callgsubr
        return
      </CharString>
      <CharString index="90">
        hstem
        78 91 return
      </CharString>
      <CharString index="91">
        -12 callgsubr
        hlineto
        return
      </CharString>
      <CharString index="92">
        24 callsubr
        -91 -700 vlineto
        return
      </CharString>
      <CharString index="93">
        -4 15 rlineto
        -86 -501 hlineto
        return
      </CharString>
      <CharString index="94">
        143 hstem
        return
      </CharString>
      <CharString index="95">
        410 hmoveto
        -34 callsubr
        return
      </CharString>
      <CharString index="96">
        -59 callsubr
        -1 return
      </CharString>
      <CharString index="97">
        118 -36 133 -35 118 rrcurveto
        return
      </CharString>
      <CharString index="98">
        143 hstemhm
        return
      </CharString>
      <CharString index="99">
        70 1 53 33 47 hhcurveto
        60 36 -46 -60 -87 -51 -28 -45 hvcurveto
        return
      </CharString>
      <CharString index="100">
        0 86 -65 -78 callgsubr
        hstem
        14 472 -279 85 return
      </CharString>
      <CharString index="101">
        vlineto
        8 29 8 29 8 28 rrcurveto
        return
      </CharString>
      <CharString index="102">
        91 0 611 -421 511 return
      </CharString>
      <CharString index="103">
        70 596 52 145 67 hstemhm
        return
      </CharString>
      <CharString index="104">
        52 -10 30 1 -21 659 51 return
      </CharString>
      <CharString index="105">
        rmoveto
        88 -320 -88 vlineto
        return
      </CharString>
      <CharString index="106">
        -123 111 33 -21 return
      </CharString>
      <CharString index="107">
        -65 -15 -36 -37 -21 -70 return
      </CharString>
      <CharString index="108">
        30 -90 22 -9 21 -18 return
      </CharString>
      <CharString index="109">
        -12 51 421 69 return
      </CharString>
      <CharString index="110">
        119 292 return
      </CharString>
      <CharString index="111">
        14 185 rlineto
        54 -82 -3 -51 vvcurveto
        14 -185 rlineto
        return
      </CharString>
      <CharString index="112">
        7 23 6 17 15 8 28 -92 28 -93 28 -92 21 return
      </CharString>
      <CharString index="113">
        rmoveto
        79 -216 -79 vlineto
        endchar
      </CharString>
      <CharString index="114">
        51 406 64 hstemhm
        37 294 -203 294 return
      </CharString>
      <CharString index="115">
        91 -91 95 104 81 49 91 -63 55 177 95 return
      </CharString>
      <CharString index="116">
        56 -30 36 hstemhm
        return
      </CharString>
      <CharString index="117">
        109 41 56 35 262 -70 27 77 57 return
      </CharString>
      <CharString index="118">
        549 686 -71 57 -544 -684 rlineto
        return
      </CharString>
      <CharString index="119">
        3 28 -36 -79 hvcurveto
        endchar
      </CharString>
      <CharString index="120">
        142 -47 47 hstem
        return
      </CharString>
      <CharString index="121">
        329 190 rmoveto
        return
      </CharString>
      <CharString index="122">
        379 16 callgsubr
        return
      </CharString>
      <CharString index="123">
        112 rmoveto
        return
      </CharString>
      <CharString index="124">
        hintmask 1111110010000000
        -59 -88 hlineto
        hintmask 1111100110000000
        59 return
      </CharString>
      <CharString index="125">
        140 428 rlineto
        -428 vlineto
        endchar
      </CharString>
      <CharString index="126">
        91 118 78 53 90 return
      </CharString>
      <CharString index="127">
        109 -61 85 -129 return
      </CharString>
      <CharString index="128">
        -15 26 -11 15 27 79 return
      </CharString>
      <CharString index="129">
        hmoveto
        346 vlineto
        return
      </CharString>
      <CharString index="130">
        -122 111 return
      </CharString>
      <CharString index="131">
        298 rmoveto
        return
      </CharString>
      <CharString index="132">
        -114 rmoveto
        return
      </CharString>
      <CharString index="133">
        456 50 97 111 -93 111 return
      </CharString>
      <CharString index="134">
        -151 rmoveto
        -36 3 -40 12 -28 64 return
      </CharString>
      <CharString index="135">
        -325 vlineto
        return
      </CharString>
      <CharString index="136">
        21 -21 460 49 205 -20 return
      </CharString>
      <CharString index="137">
        700 -91 vlineto
        -178 -516 return
      </CharString>
      <CharString index="138">
        -47 16 -17 30 49 vvcurveto
        273 return
      </CharString>
      <CharString index="139">
        21 -21 327 80 227 80 return
      </CharString>
      <CharString index="140">
        21 -21 439 90 return
      </CharString>
</ttFont>
